<svg viewBox="0 0 330 200" xmlns="http://www.w3.org/2000/svg"><g><g><g><g><g><line x1="53.172000885009766" y1="175.63999938964844" x2="48.172000885009766" y2="175.63999938964844" style="visibility: inherit;" fill="rgb(0, 0, 0)" stroke="rgb(204, 204, 204)" stroke-width="1px"></line><line x1="53.172000885009766" y1="156.1244439019095" x2="48.172000885009766" y2="156.1244439019095" style="visibility: inherit;" fill="rgb(0, 0, 0)" stroke="rgb(204, 204, 204)" stroke-width="1px"></line><line x1="53.172000885009766" y1="136.60888841417125" x2="48.172000885009766" y2="136.60888841417125" style="visibility: inherit;" fill="rgb(0, 0, 0)" stroke="rgb(204, 204, 204)" stroke-width="1px"></line><line x1="53.172000885009766" y1="117.09333292643231" x2="48.172000885009766" y2="117.09333292643231" style="visibility: inherit;" fill="rgb(0, 0, 0)" stroke="rgb(204, 204, 204)" stroke-width="1px"></line><line x1="53.172000885009766" y1="97.57777743869335" x2="48.172000885009766" y2="97.57777743869335" style="visibility: inherit;" fill="rgb(0, 0, 0)" stroke="rgb(204, 204, 204)" stroke-width="1px"></line><line x1="53.172000885009766" y1="78.06222195095509" x2="48.172000885009766" y2="78.06222195095509" style="visibility: inherit;" fill="rgb(0, 0, 0)" stroke="rgb(204, 204, 204)" stroke-width="1px"></line><line x1="53.172000885009766" y1="58.546666463216155" x2="48.172000885009766" y2="58.546666463216155" style="visibility: inherit;" fill="rgb(0, 0, 0)" stroke="rgb(204, 204, 204)" stroke-width="1px"></line><line x1="53.172000885009766" y1="39.031110975477894" x2="48.172000885009766" y2="39.031110975477894" style="visibility: inherit;" fill="rgb(0, 0, 0)" stroke="rgb(204, 204, 204)" stroke-width="1px"></line><line x1="53.172000885009766" y1="19.51555548773894" x2="48.172000885009766" y2="19.51555548773894" style="visibility: inherit;" fill="rgb(0, 0, 0)" stroke="rgb(204, 204, 204)" stroke-width="1px"></line><line x1="53.172000885009766" y1="0" x2="48.172000885009766" y2="0" style="visibility: inherit;" fill="rgb(0, 0, 0)" stroke="rgb(204, 204, 204)" stroke-width="1px"></line></g><g transform="translate(43.172000885009766, 0)"><text style="text-anchor: end; visibility: hidden; font-family: Roboto, sans-serif; font-size: 12px; font-weight: 200;" x="0" y="175.63999938964844" dx="0em" dy="0.3em" fill="rgb(33, 33, 33)" stroke="none" stroke-width="1px">10.1</text><text style="text-anchor: end; visibility: inherit; font-family: Roboto, sans-serif; font-size: 12px; font-weight: 200;" x="0" y="156.1244439019095" dx="0em" dy="0.3em" fill="rgb(33, 33, 33)" stroke="none" stroke-width="1px">10.2</text><text style="text-anchor: end; visibility: hidden; font-family: Roboto, sans-serif; font-size: 12px; font-weight: 200;" x="0" y="136.60888841417125" dx="0em" dy="0.3em" fill="rgb(33, 33, 33)" stroke="none" stroke-width="1px">10.2</text><text style="text-anchor: end; visibility: inherit; font-family: Roboto, sans-serif; font-size: 12px; font-weight: 200;" x="0" y="117.09333292643231" dx="0em" dy="0.3em" fill="rgb(33, 33, 33)" stroke="none" stroke-width="1px">10.3</text><text style="text-anchor: end; visibility: hidden; font-family: Roboto, sans-serif; font-size: 12px; font-weight: 200;" x="0" y="97.57777743869335" dx="0em" dy="0.3em" fill="rgb(33, 33, 33)" stroke="none" stroke-width="1px">10.3</text><text style="text-anchor: end; visibility: inherit; font-family: Roboto, sans-serif; font-size: 12px; font-weight: 200;" x="0" y="78.06222195095509" dx="0em" dy="0.3em" fill="rgb(33, 33, 33)" stroke="none" stroke-width="1px">10.3</text><text style="text-anchor: end; visibility: hidden; font-family: Roboto, sans-serif; font-size: 12px; font-weight: 200;" x="0" y="58.546666463216155" dx="0em" dy="0.3em" fill="rgb(33, 33, 33)" stroke="none" stroke-width="1px">10.4</text><text style="text-anchor: end; visibility: inherit; font-family: Roboto, sans-serif; font-size: 12px; font-weight: 200;" x="0" y="39.031110975477894" dx="0em" dy="0.3em" fill="rgb(33, 33, 33)" stroke="none" stroke-width="1px">10.4</text><text style="text-anchor: end; visibility: hidden; font-family: Roboto, sans-serif; font-size: 12px; font-weight: 200;" x="0" y="19.51555548773894" dx="0em" dy="0.3em" fill="rgb(33, 33, 33)" stroke="none" stroke-width="1px">10.5</text><text style="text-anchor: end; visibility: hidden; font-family: Roboto, sans-serif; font-size: 12px; font-weight: 200;" x="0" y="0" dx="0em" dy="0.3em" fill="rgb(33, 33, 33)" stroke="none" stroke-width="1px">10.6</text></g><line x1="53.172000885009766" y1="0" x2="53.172000885009766" y2="175.63999938964844" fill="rgb(0, 0, 0)" stroke="rgb(204, 204, 204)" stroke-width="1px"></line></g></g><g transform="translate(53, 0)" clip-path="url(#clip_0)"><clipPath id="clip_0"><rect width="276" height="175"></rect></clipPath><g><g><g><line x1="0" y1="0" x2="0" y2="175.63999938964844" fill="rgb(0, 0, 0)" stroke="rgb(66, 66, 66)" stroke-width="1px" opacity="0.25"></line><line x1="23.068999926249184" y1="0" x2="23.068999926249184" y2="175.63999938964844" fill="rgb(0, 0, 0)" stroke="rgb(66, 66, 66)" stroke-width="1px" opacity="0.25"></line><line x1="46.13799985249837" y1="0" x2="46.13799985249837" y2="175.63999938964844" fill="rgb(0, 0, 0)" stroke="rgb(66, 66, 66)" stroke-width="1px" opacity="0.25"></line><line x1="69.20699977874756" y1="0" x2="69.20699977874756" y2="175.63999938964844" fill="rgb(0, 0, 0)" stroke="rgb(66, 66, 66)" stroke-width="1px" opacity="0.25"></line><line x1="92.27599970499674" y1="0" x2="92.27599970499674" y2="175.63999938964844" fill="rgb(0, 0, 0)" stroke="rgb(66, 66, 66)" stroke-width="1px" opacity="0.25"></line><line x1="115.34499963124594" y1="0" x2="115.34499963124594" y2="175.63999938964844" fill="rgb(0, 0, 0)" stroke="rgb(66, 66, 66)" stroke-width="1px" opacity="0.25"></line><line x1="138.41399955749512" y1="0" x2="138.41399955749512" y2="175.63999938964844" fill="rgb(0, 0, 0)" stroke="rgb(66, 66, 66)" stroke-width="1px" opacity="0.25"></line><line x1="161.48299948374432" y1="0" x2="161.48299948374432" y2="175.63999938964844" fill="rgb(0, 0, 0)" stroke="rgb(66, 66, 66)" stroke-width="1px" opacity="0.25"></line><line x1="184.55199940999347" y1="0" x2="184.55199940999347" y2="175.63999938964844" fill="rgb(0, 0, 0)" stroke="rgb(66, 66, 66)" stroke-width="1px" opacity="0.25"></line><line x1="207.62099933624268" y1="0" x2="207.62099933624268" y2="175.63999938964844" fill="rgb(0, 0, 0)" stroke="rgb(66, 66, 66)" stroke-width="1px" opacity="0.25"></line><line x1="230.68999926249188" y1="0" x2="230.68999926249188" y2="175.63999938964844" fill="rgb(0, 0, 0)" stroke="rgb(66, 66, 66)" stroke-width="1px" opacity="0.25"></line><line x1="253.75899918874103" y1="0" x2="253.75899918874103" y2="175.63999938964844" fill="rgb(0, 0, 0)" stroke="rgb(66, 66, 66)" stroke-width="1px" opacity="0.25"></line><line x1="276.82799911499023" y1="0" x2="276.82799911499023" y2="175.63999938964844" fill="rgb(0, 0, 0)" stroke="rgb(66, 66, 66)" stroke-width="1px" opacity="0.25"></line></g><g><line x1="0" y1="175.63999938964844" x2="276.82799911499023" y2="175.63999938964844" fill="rgb(0, 0, 0)" stroke="rgb(66, 66, 66)" stroke-width="1px" opacity="0.25"></line><line x1="0" y1="156.1244439019095" x2="276.82799911499023" y2="156.1244439019095" fill="rgb(0, 0, 0)" stroke="rgb(66, 66, 66)" stroke-width="1px" opacity="0.25"></line><line x1="0" y1="136.60888841417125" x2="276.82799911499023" y2="136.60888841417125" fill="rgb(0, 0, 0)" stroke="rgb(66, 66, 66)" stroke-width="1px" opacity="0.25"></line><line x1="0" y1="117.09333292643231" x2="276.82799911499023" y2="117.09333292643231" fill="rgb(0, 0, 0)" stroke="rgb(66, 66, 66)" stroke-width="1px" opacity="0.25"></line><line x1="0" y1="97.57777743869335" x2="276.82799911499023" y2="97.57777743869335" fill="rgb(0, 0, 0)" stroke="rgb(66, 66, 66)" stroke-width="1px" opacity="0.25"></line><line x1="0" y1="78.06222195095509" x2="276.82799911499023" y2="78.06222195095509" fill="rgb(0, 0, 0)" stroke="rgb(66, 66, 66)" stroke-width="1px" opacity="0.25"></line><line x1="0" y1="58.546666463216155" x2="276.82799911499023" y2="58.546666463216155" fill="rgb(0, 0, 0)" stroke="rgb(66, 66, 66)" stroke-width="1px" opacity="0.25"></line><line x1="0" y1="39.031110975477894" x2="276.82799911499023" y2="39.031110975477894" fill="rgb(0, 0, 0)" stroke="rgb(66, 66, 66)" stroke-width="1px" opacity="0.25"></line><line x1="0" y1="19.51555548773894" x2="276.82799911499023" y2="19.51555548773894" fill="rgb(0, 0, 0)" stroke="rgb(66, 66, 66)" stroke-width="1px" opacity="0.25"></line><line x1="0" y1="0" x2="276.82799911499023" y2="0" fill="rgb(0, 0, 0)" stroke="rgb(66, 66, 66)" stroke-width="1px" opacity="0.25"></line></g></g></g><g><g><line x1="0" y1="4117.782207912859" x2="276.82799911499023" y2="4117.782207912859" fill="rgb(0, 0, 0)" stroke="rgb(153, 153, 153)" stroke-width="1.5px"></line></g></g><g><g><line x1="23.068999926249184" y1="0" x2="23.068999926249184" y2="175.63999938964844" fill="rgb(0, 0, 0)" stroke="rgb(153, 153, 153)" stroke-width="1.5px"></line></g></g><g><g><g><g><g><path style="fill: none;" stroke="rgb(255, 112, 67)" stroke-width="2px" d="M29.989699904123942,-3.915952583617212L32.29659989674886,9.443705631382947L34.60349988937378,22.025161130403593L36.9103998819987,33.66360539629852L39.21729987462361,44.27817868488273L41.524199867248534,53.85311106072715L43.831099859873454,62.418794724781975L46.13799985249837,70.03632448942534L48.44489984512329,76.78334795834687L50.75179983774821,82.74447268239017L53.05869983037313,88.00457771672868L55.36559982299805,92.64508815961706L57.67249981562297,96.74129664250356L59.979399808247884,100.36162225349453L62.286299800872804,103.5668399355184L64.59319979349772,106.41101234937874L66.90009978612264,108.94155151904883L69.20699977874756,111.19982464534861L71.51389977137248,113.22180118306186L73.8207997639974,115.03888027621223L76.12769975662232,116.67838326763074L78.43459974924723,118.16399601909596L80.74149974187216,119.51618209772496L83.04839973449707,120.75302567528615L85.35529972712199,121.88999249950376L87.66219971974691,122.94067966693545L89.96909971237183,123.91652093975958L92.27599970499674,124.82809880900078L94.58289969762167,125.68414500468128L96.88979969024658,126.4928763835001L99.1966996828715,127.26056307594507L101.50359967549642,127.99334942460167L103.81049966812134,128.6962620586978L106.11739966074626,129.37395476460338L108.42429965337118,130.03026205625733L110.7311996459961,130.66882466831797L113.038099638621,131.29257150062196L115.34499963124594,131.90415324412777L117.65189962387085,132.50575588079366L119.95879961649577,133.09928656722724L122.26569960912069,133.6867829485916L124.57259960174561,134.26961650383643L126.87949959437051,134.84920568781007L129.18639958699544,135.4265504652852L131.49329957962036,136.0026974907391L133.80019957224528,136.57827475685733L136.1070995648702,137.15395684299176L138.41399955749512,137.73059517237283L140.72089955012004,138.30870059893505L143.02779954274496,138.8885796350403L145.33469953536988,139.47071397185164L147.6415995279948,140.05509484031842L149.9484995206197,140.6423125465037L152.25539951324464,141.2321257065525L154.56229950586956,141.8249850576436L156.86919949849445,142.42101215021L159.17609949111937,143.0201310226412L161.48299948374432,143.62244498984168L163.78989947636921,144.2281649326263L166.09679946899413,144.83682181199623L168.40369946161906,145.44858088016738L170.71059945424398,146.0633923965977L173.0174994468689,146.68107762508987L175.32439943949382,147.30167821579752L177.63129943211874,147.92507026694216L179.93819942474366,148.55117943745296L182.24509941736858,149.1799611226905L184.55199940999347,149.81123966799836L186.85889940261842,150.44490968058156L189.16579939524334,151.0804612491471L191.47269938786823,151.71803510253727L193.77959938049315,152.3575667861817L196.0864993731181,152.99886873546933L198.393399365743,153.64212619537608L200.70029935836791,154.2865569616551L203.00719935099283,154.93228727924617L205.31409934361776,155.5792440032416L207.62099933624268,156.22723435482354L209.9278993288676,156.87644045044746L212.23479932149252,157.52622710062428L214.54169931411744,158.17665986727715L216.84859930674236,158.82762919568802L219.15549929936725,159.4789204611535L221.4623992919922,160.13070267259627L223.76929928461712,160.78233277600899L226.076199277242,161.4338716146033L228.38309926986693,162.08520680243436L230.68999926249188,162.73641979980735L232.99689925511677,163.38726169916131L235.3037992477417,164.03773204783096L237.6106992403666,164.68738389860147L239.91759923299153,165.33639575875975L242.22449922561646,165.98472584080525L244.53139921824138,166.63205128849526L246.8382992108663,167.27847617182658L249.14519920349122,167.92361625718132L251.45209919611614,168.56738989626083" fill="none"></path></g></g></g></g><g opacity="0.2"><g><g><g><path style="fill: none;" stroke="rgb(255, 112, 67)" stroke-width="2px" d="M27.682799911499025,-4.35665062979844L29.989699904123942,12.399268450564959L32.29659989674886,26.886075396886458L34.60349988937378,39.42984340953038L36.9103998819987,50.30676691163631L39.21729987462361,59.75432843954265L41.524199867248534,67.97427648023275L43.831099859873454,75.13783668686594L46.13799985249837,81.39352870207392L48.44489984512329,86.8671661579607L50.75179983774821,91.66669566195283L53.05869983037313,95.88443017488403L55.36559982299805,99.60039907812224L57.67249981562297,102.88272040325039L59.979399808247884,105.79057866951271L62.286299800872804,108.3738526541339L64.59319979349772,110.67683768912686L66.90009978612264,112.7371289722505L69.20699977874756,114.58711048573282L71.51389977137248,116.25469945563236L73.8207997639974,117.76446304088068L76.12769975662232,119.13761833328235L78.43459974924723,120.39240458719563L80.74149974187216,121.54445544921327L83.04839973449707,122.60828787688578L85.35529972712199,123.5954409903174L87.66219971974691,124.51670945025072L89.96909971237183,125.380282309663L92.27599970499674,126.19546531057371L94.58289969762167,126.96821412787538L96.88979969024658,127.7059733551836L99.1966996828715,128.41209305962545L101.50359967549642,129.09252891609339L103.81049966812134,129.75063099171447L106.11739966074626,130.39049381297727L108.42429965337118,131.01472298764722L110.7311996459961,131.62666858285144L113.038099638621,132.2281917469938L115.34499963124594,132.82152585815894L117.65189962387085,133.40815983507002L119.95879961649577,133.98958259645016L122.26569960912069,134.56802752038408L124.57259960174561,135.14386683655252L126.87949959437051,135.71858946367863L129.18639958699544,136.29256763144315L131.49329957962036,136.86691802888845L133.80019957224528,137.44164065601456L136.1070995648702,138.01747997218297L138.41399955749512,138.5955526664361L140.72089955012004,139.1758587387739L143.02779954274496,139.7583981891964L145.33469953536988,140.34391547706517L147.6415995279948,140.9316661430186L149.9484995206197,141.52313910577985L152.25539951324464,142.11684544662577L154.56229950586956,142.7142740842795L156.86919949849445,143.3150527890603L159.17609949111937,143.9188093312873L161.48299948374432,144.52591594064137L163.78989947636921,145.13674484680323L166.09679946899413,145.74980713104978L168.40369946161906,146.36621948242336L170.71059945424398,146.9856096712432L173.0174994468689,147.60760546782848L175.32439943949382,148.23257910186004L177.63129943211874,148.86015834365705L179.93819942474366,149.49034319321953L182.24509941736858,150.1231336505475L184.55199940999347,150.7581574859601L186.85889940261842,151.39541469945746L189.16579939524334,152.03378860199714L191.47269938786823,152.67439588262147L193.77959938049315,153.31686431164977L196.0864993731181,153.96082165940112L198.393399365743,154.6070123852372L200.70029935836791,155.25320311107328L203.00719935099283,155.90088275563247L205.31409934361776,156.54967908923402L207.62099933624268,157.19921988219713L209.9278993288676,157.85024959388335L212.23479932149252,158.5009070758888L214.54169931411744,159.15230901725582L216.84859930674236,159.8040831883036L219.15549929936725,160.45585735935137L221.4623992919922,161.10837598976073L223.76929928461712,161.75977793112776L226.076199277242,162.41117987249476L228.38309926986693,163.06220958418098L230.68999926249188,163.71323929586723L232.99689925511677,164.3635245481919L235.3037992477417,165.01343757083578L237.6106992403666,165.66186167475652L239.91759923299153,166.30991354899652L242.22449922561646,166.9572209638749L244.53139921824138,167.60303946003023L246.8382992108663,168.24811349682395L249.14519920349122,168.89132638521377L251.45209919611614,169.53305035488046" fill="none"></path></g></g></g></g></g></g><g transform="translate(53, 175)" clip-path="url(#clip_1)"><clipPath id="clip_1"><rect width="276" height="24"></rect></clipPath><g><g><line x1="0" y1="0" x2="0" y2="5" style="visibility: inherit;" fill="rgb(0, 0, 0)" stroke="rgb(204, 204, 204)" stroke-width="1px"></line><line x1="23.068999926249184" y1="0" x2="23.068999926249184" y2="5" style="visibility: inherit;" fill="rgb(0, 0, 0)" stroke="rgb(204, 204, 204)" stroke-width="1px"></line><line x1="46.13799985249837" y1="0" x2="46.13799985249837" y2="5" style="visibility: inherit;" fill="rgb(0, 0, 0)" stroke="rgb(204, 204, 204)" stroke-width="1px"></line><line x1="69.20699977874756" y1="0" x2="69.20699977874756" y2="5" style="visibility: inherit;" fill="rgb(0, 0, 0)" stroke="rgb(204, 204, 204)" stroke-width="1px"></line><line x1="92.27599970499674" y1="0" x2="92.27599970499674" y2="5" style="visibility: inherit;" fill="rgb(0, 0, 0)" stroke="rgb(204, 204, 204)" stroke-width="1px"></line><line x1="115.34499963124594" y1="0" x2="115.34499963124594" y2="5" style="visibility: inherit;" fill="rgb(0, 0, 0)" stroke="rgb(204, 204, 204)" stroke-width="1px"></line><line x1="138.41399955749512" y1="0" x2="138.41399955749512" y2="5" style="visibility: inherit;" fill="rgb(0, 0, 0)" stroke="rgb(204, 204, 204)" stroke-width="1px"></line><line x1="161.48299948374432" y1="0" x2="161.48299948374432" y2="5" style="visibility: inherit;" fill="rgb(0, 0, 0)" stroke="rgb(204, 204, 204)" stroke-width="1px"></line><line x1="184.55199940999347" y1="0" x2="184.55199940999347" y2="5" style="visibility: inherit;" fill="rgb(0, 0, 0)" stroke="rgb(204, 204, 204)" stroke-width="1px"></line><line x1="207.62099933624268" y1="0" x2="207.62099933624268" y2="5" style="visibility: inherit;" fill="rgb(0, 0, 0)" stroke="rgb(204, 204, 204)" stroke-width="1px"></line><line x1="230.68999926249188" y1="0" x2="230.68999926249188" y2="5" style="visibility: inherit;" fill="rgb(0, 0, 0)" stroke="rgb(204, 204, 204)" stroke-width="1px"></line><line x1="253.75899918874103" y1="0" x2="253.75899918874103" y2="5" style="visibility: inherit;" fill="rgb(0, 0, 0)" stroke="rgb(204, 204, 204)" stroke-width="1px"></line><line x1="276.82799911499023" y1="0" x2="276.82799911499023" y2="5" style="visibility: inherit;" fill="rgb(0, 0, 0)" stroke="rgb(204, 204, 204)" stroke-width="1px"></line></g><g transform="translate(0, 8)"><text style="text-anchor: middle; visibility: hidden; font-family: Roboto, sans-serif; font-size: 12px; font-weight: 200;" x="0" y="0" dx="0em" dy="0.95em" fill="rgb(33, 33, 33)" stroke="none" stroke-width="1px">-10</text><text style="text-anchor: middle; visibility: inherit; font-family: Roboto, sans-serif; font-size: 12px; font-weight: 200;" x="23.068999926249184" y="0" dx="0em" dy="0.95em" fill="rgb(33, 33, 33)" stroke="none" stroke-width="1px">0</text><text style="text-anchor: middle; visibility: inherit; font-family: Roboto, sans-serif; font-size: 12px; font-weight: 200;" x="46.13799985249837" y="0" dx="0em" dy="0.95em" fill="rgb(33, 33, 33)" stroke="none" stroke-width="1px">10</text><text style="text-anchor: middle; visibility: inherit; font-family: Roboto, sans-serif; font-size: 12px; font-weight: 200;" x="69.20699977874756" y="0" dx="0em" dy="0.95em" fill="rgb(33, 33, 33)" stroke="none" stroke-width="1px">20</text><text style="text-anchor: middle; visibility: inherit; font-family: Roboto, sans-serif; font-size: 12px; font-weight: 200;" x="92.27599970499674" y="0" dx="0em" dy="0.95em" fill="rgb(33, 33, 33)" stroke="none" stroke-width="1px">30</text><text style="text-anchor: middle; visibility: inherit; font-family: Roboto, sans-serif; font-size: 12px; font-weight: 200;" x="115.34499963124594" y="0" dx="0em" dy="0.95em" fill="rgb(33, 33, 33)" stroke="none" stroke-width="1px">40</text><text style="text-anchor: middle; visibility: inherit; font-family: Roboto, sans-serif; font-size: 12px; font-weight: 200;" x="138.41399955749512" y="0" dx="0em" dy="0.95em" fill="rgb(33, 33, 33)" stroke="none" stroke-width="1px">50</text><text style="text-anchor: middle; visibility: inherit; font-family: Roboto, sans-serif; font-size: 12px; font-weight: 200;" x="161.48299948374432" y="0" dx="0em" dy="0.95em" fill="rgb(33, 33, 33)" stroke="none" stroke-width="1px">60</text><text style="text-anchor: middle; visibility: inherit; font-family: Roboto, sans-serif; font-size: 12px; font-weight: 200;" x="184.55199940999347" y="0" dx="0em" dy="0.95em" fill="rgb(33, 33, 33)" stroke="none" stroke-width="1px">70</text><text style="text-anchor: middle; visibility: inherit; font-family: Roboto, sans-serif; font-size: 12px; font-weight: 200;" x="207.62099933624268" y="0" dx="0em" dy="0.95em" fill="rgb(33, 33, 33)" stroke="none" stroke-width="1px">80</text><text style="text-anchor: middle; visibility: inherit; font-family: Roboto, sans-serif; font-size: 12px; font-weight: 200;" x="230.68999926249188" y="0" dx="0em" dy="0.95em" fill="rgb(33, 33, 33)" stroke="none" stroke-width="1px">90</text><text style="text-anchor: middle; visibility: inherit; font-family: Roboto, sans-serif; font-size: 12px; font-weight: 200;" x="253.75899918874103" y="0" dx="0em" dy="0.95em" fill="rgb(33, 33, 33)" stroke="none" stroke-width="1px">100</text><text style="text-anchor: middle; visibility: hidden; font-family: Roboto, sans-serif; font-size: 12px; font-weight: 200;" x="276.82799911499023" y="0" dx="0em" dy="0.95em" fill="rgb(33, 33, 33)" stroke="none" stroke-width="1px">110</text></g><line x1="0" y1="0" x2="276.82799911499023" y2="0" fill="rgb(0, 0, 0)" stroke="rgb(204, 204, 204)" stroke-width="1px"></line></g></g></g></g></svg>