<svg viewBox="0 0 330 200" xmlns="http://www.w3.org/2000/svg"><g><g><g><g><g><line x1="53.172000885009766" y1="175.63999938964844" x2="48.172000885009766" y2="175.63999938964844" style="visibility: inherit;" fill="rgb(0, 0, 0)" stroke="rgb(204, 204, 204)" stroke-width="1px"></line><line x1="53.172000885009766" y1="150.5485709054134" x2="48.172000885009766" y2="150.5485709054134" style="visibility: inherit;" fill="rgb(0, 0, 0)" stroke="rgb(204, 204, 204)" stroke-width="1px"></line><line x1="53.172000885009766" y1="125.45714242117728" x2="48.172000885009766" y2="125.45714242117728" style="visibility: inherit;" fill="rgb(0, 0, 0)" stroke="rgb(204, 204, 204)" stroke-width="1px"></line><line x1="53.172000885009766" y1="100.36571393694227" x2="48.172000885009766" y2="100.36571393694227" style="visibility: inherit;" fill="rgb(0, 0, 0)" stroke="rgb(204, 204, 204)" stroke-width="1px"></line><line x1="53.172000885009766" y1="75.27428545270615" x2="48.172000885009766" y2="75.27428545270615" style="visibility: inherit;" fill="rgb(0, 0, 0)" stroke="rgb(204, 204, 204)" stroke-width="1px"></line><line x1="53.172000885009766" y1="50.182856968471135" x2="48.172000885009766" y2="50.182856968471135" style="visibility: inherit;" fill="rgb(0, 0, 0)" stroke="rgb(204, 204, 204)" stroke-width="1px"></line><line x1="53.172000885009766" y1="25.091428484235013" x2="48.172000885009766" y2="25.091428484235013" style="visibility: inherit;" fill="rgb(0, 0, 0)" stroke="rgb(204, 204, 204)" stroke-width="1px"></line><line x1="53.172000885009766" y1="0" x2="48.172000885009766" y2="0" style="visibility: inherit;" fill="rgb(0, 0, 0)" stroke="rgb(204, 204, 204)" stroke-width="1px"></line></g><g transform="translate(43.172000885009766, 0)"><text style="text-anchor: end; visibility: hidden; font-family: Roboto, sans-serif; font-size: 12px; font-weight: 200;" x="0" y="175.63999938964844" dx="0em" dy="0.3em" fill="rgb(33, 33, 33)" stroke="none" stroke-width="1px">1.65</text><text style="text-anchor: end; visibility: inherit; font-family: Roboto, sans-serif; font-size: 12px; font-weight: 200;" x="0" y="150.5485709054134" dx="0em" dy="0.3em" fill="rgb(33, 33, 33)" stroke="none" stroke-width="1px">1.65</text><text style="text-anchor: end; visibility: inherit; font-family: Roboto, sans-serif; font-size: 12px; font-weight: 200;" x="0" y="125.45714242117728" dx="0em" dy="0.3em" fill="rgb(33, 33, 33)" stroke="none" stroke-width="1px">1.66</text><text style="text-anchor: end; visibility: inherit; font-family: Roboto, sans-serif; font-size: 12px; font-weight: 200;" x="0" y="100.36571393694227" dx="0em" dy="0.3em" fill="rgb(33, 33, 33)" stroke="none" stroke-width="1px">1.66</text><text style="text-anchor: end; visibility: inherit; font-family: Roboto, sans-serif; font-size: 12px; font-weight: 200;" x="0" y="75.27428545270615" dx="0em" dy="0.3em" fill="rgb(33, 33, 33)" stroke="none" stroke-width="1px">1.67</text><text style="text-anchor: end; visibility: inherit; font-family: Roboto, sans-serif; font-size: 12px; font-weight: 200;" x="0" y="50.182856968471135" dx="0em" dy="0.3em" fill="rgb(33, 33, 33)" stroke="none" stroke-width="1px">1.67</text><text style="text-anchor: end; visibility: inherit; font-family: Roboto, sans-serif; font-size: 12px; font-weight: 200;" x="0" y="25.091428484235013" dx="0em" dy="0.3em" fill="rgb(33, 33, 33)" stroke="none" stroke-width="1px">1.68</text><text style="text-anchor: end; visibility: hidden; font-family: Roboto, sans-serif; font-size: 12px; font-weight: 200;" x="0" y="0" dx="0em" dy="0.3em" fill="rgb(33, 33, 33)" stroke="none" stroke-width="1px">1.68</text></g><line x1="53.172000885009766" y1="0" x2="53.172000885009766" y2="175.63999938964844" fill="rgb(0, 0, 0)" stroke="rgb(204, 204, 204)" stroke-width="1px"></line></g></g><g transform="translate(53, 0)" clip-path="url(#clip_0)"><clipPath id="clip_0"><rect width="276" height="175"></rect></clipPath><g><g><g><line x1="0" y1="0" x2="0" y2="175.63999938964844" fill="rgb(0, 0, 0)" stroke="rgb(66, 66, 66)" stroke-width="1px" opacity="0.25"></line><line x1="23.068999926249184" y1="0" x2="23.068999926249184" y2="175.63999938964844" fill="rgb(0, 0, 0)" stroke="rgb(66, 66, 66)" stroke-width="1px" opacity="0.25"></line><line x1="46.13799985249837" y1="0" x2="46.13799985249837" y2="175.63999938964844" fill="rgb(0, 0, 0)" stroke="rgb(66, 66, 66)" stroke-width="1px" opacity="0.25"></line><line x1="69.20699977874756" y1="0" x2="69.20699977874756" y2="175.63999938964844" fill="rgb(0, 0, 0)" stroke="rgb(66, 66, 66)" stroke-width="1px" opacity="0.25"></line><line x1="92.27599970499674" y1="0" x2="92.27599970499674" y2="175.63999938964844" fill="rgb(0, 0, 0)" stroke="rgb(66, 66, 66)" stroke-width="1px" opacity="0.25"></line><line x1="115.34499963124594" y1="0" x2="115.34499963124594" y2="175.63999938964844" fill="rgb(0, 0, 0)" stroke="rgb(66, 66, 66)" stroke-width="1px" opacity="0.25"></line><line x1="138.41399955749512" y1="0" x2="138.41399955749512" y2="175.63999938964844" fill="rgb(0, 0, 0)" stroke="rgb(66, 66, 66)" stroke-width="1px" opacity="0.25"></line><line x1="161.48299948374432" y1="0" x2="161.48299948374432" y2="175.63999938964844" fill="rgb(0, 0, 0)" stroke="rgb(66, 66, 66)" stroke-width="1px" opacity="0.25"></line><line x1="184.55199940999347" y1="0" x2="184.55199940999347" y2="175.63999938964844" fill="rgb(0, 0, 0)" stroke="rgb(66, 66, 66)" stroke-width="1px" opacity="0.25"></line><line x1="207.62099933624268" y1="0" x2="207.62099933624268" y2="175.63999938964844" fill="rgb(0, 0, 0)" stroke="rgb(66, 66, 66)" stroke-width="1px" opacity="0.25"></line><line x1="230.68999926249188" y1="0" x2="230.68999926249188" y2="175.63999938964844" fill="rgb(0, 0, 0)" stroke="rgb(66, 66, 66)" stroke-width="1px" opacity="0.25"></line><line x1="253.75899918874103" y1="0" x2="253.75899918874103" y2="175.63999938964844" fill="rgb(0, 0, 0)" stroke="rgb(66, 66, 66)" stroke-width="1px" opacity="0.25"></line><line x1="276.82799911499023" y1="0" x2="276.82799911499023" y2="175.63999938964844" fill="rgb(0, 0, 0)" stroke="rgb(66, 66, 66)" stroke-width="1px" opacity="0.25"></line></g><g><line x1="0" y1="175.63999938964844" x2="276.82799911499023" y2="175.63999938964844" fill="rgb(0, 0, 0)" stroke="rgb(66, 66, 66)" stroke-width="1px" opacity="0.25"></line><line x1="0" y1="150.5485709054134" x2="276.82799911499023" y2="150.5485709054134" fill="rgb(0, 0, 0)" stroke="rgb(66, 66, 66)" stroke-width="1px" opacity="0.25"></line><line x1="0" y1="125.45714242117728" x2="276.82799911499023" y2="125.45714242117728" fill="rgb(0, 0, 0)" stroke="rgb(66, 66, 66)" stroke-width="1px" opacity="0.25"></line><line x1="0" y1="100.36571393694227" x2="276.82799911499023" y2="100.36571393694227" fill="rgb(0, 0, 0)" stroke="rgb(66, 66, 66)" stroke-width="1px" opacity="0.25"></line><line x1="0" y1="75.27428545270615" x2="276.82799911499023" y2="75.27428545270615" fill="rgb(0, 0, 0)" stroke="rgb(66, 66, 66)" stroke-width="1px" opacity="0.25"></line><line x1="0" y1="50.182856968471135" x2="276.82799911499023" y2="50.182856968471135" fill="rgb(0, 0, 0)" stroke="rgb(66, 66, 66)" stroke-width="1px" opacity="0.25"></line><line x1="0" y1="25.091428484235013" x2="276.82799911499023" y2="25.091428484235013" fill="rgb(0, 0, 0)" stroke="rgb(66, 66, 66)" stroke-width="1px" opacity="0.25"></line><line x1="0" y1="0" x2="276.82799911499023" y2="0" fill="rgb(0, 0, 0)" stroke="rgb(66, 66, 66)" stroke-width="1px" opacity="0.25"></line></g></g></g><g><g><line x1="0" y1="8430.719970703143" x2="276.82799911499023" y2="8430.719970703143" fill="rgb(0, 0, 0)" stroke="rgb(153, 153, 153)" stroke-width="1.5px"></line></g></g><g><g><line x1="23.068999926249184" y1="0" x2="23.068999926249184" y2="175.63999938964844" fill="rgb(0, 0, 0)" stroke="rgb(153, 153, 153)" stroke-width="1.5px"></line></g></g><g><g><g><g><g><path style="fill: none;" stroke="rgb(255, 112, 67)" stroke-width="2px" d="M32.29659989674886,-2.929939566008504L34.60349988937378,11.063918540462543L36.9103998819987,23.941430237481594L39.21729987462361,35.59894721795989L41.524199867248534,46.053849072586125L43.831099859873454,55.363371096983414L46.13799985249837,63.56959674834694L48.44489984512329,70.73015298527918L50.75179983774821,76.96351563606697L53.05869983037313,82.36772112151843L55.36559982299805,87.04251478150677L57.67249981562297,91.08418296216827L59.979399808247884,94.56773311338014L62.286299800872804,97.5690359166814L64.59319979349772,100.16914081721889L66.90009978612264,102.41972001154302L69.20699977874756,104.37184369735952L71.51389977137248,106.07264736805351L73.8207997639974,107.54585646174856L76.12769975662232,108.83920247297905L78.43459974924723,109.98012522136395L80.74149974187216,110.9874802418229L83.04839973449707,111.88621978174582L85.35529972712199,112.69131483583384L87.66219971974691,113.41940512344289L89.96909971237183,114.08621735437333L92.27599970499674,114.6975981461257L94.58289969762167,115.26016622127656L96.88979969024658,115.78100357641392L99.1966996828715,116.26459869247016L101.50359967549642,116.72417343657193L103.81049966812134,117.16072150173322L106.11739966074626,117.58153923695613L108.42429965337118,117.99435451809813L110.7311996459961,118.4078720089596L113.038099638621,118.82109295436777L115.34499963124594,119.23581100621723L117.65189962387085,119.65358093660139L119.95879961649577,120.07892496637716L122.26569960912069,120.51383855650917L124.57259960174561,120.95832253102L126.87949959437051,121.40950589820329L129.18639958699544,121.86710180608905L131.49329957962036,122.33428821061828L133.80019957224528,122.81153614229918L136.1070995648702,123.29817105739984L138.41399955749512,123.79665971578942L140.72089955012004,124.30920004491637L143.02779954274496,124.83782867277455L145.33469953536988,125.38209254260028L147.6415995279948,125.94124123931593L149.9484995206197,126.51626025692666L152.25539951324464,127.1060658582765L154.56229950586956,127.7097685105581L156.86919949849445,128.32779165612743L159.17609949111937,128.9606286509055L161.48299948374432,129.60761834640644L163.78989947636921,130.26884263455997L166.09679946899413,130.94219703594095L168.40369946161906,131.6292903490045L170.71059945424398,132.32965210976633L173.0174994468689,133.04156429678414L175.32439943949382,133.765910421264L177.63129943211874,134.50202413738535L179.93819942474366,135.24998421867258L182.24509941736858,136.00816289567595L184.55199940999347,136.77630137825554L186.85889940261842,137.5532872302904L189.16579939524334,138.33821369959622L191.47269938786823,139.13173318741272L193.77959938049315,139.9332799724416L196.0864993731181,140.74371107445282L198.393399365743,141.56282283378138L200.70029935836791,142.38857873055454L203.00719935099283,143.2199961433582L205.31409934361776,144.05600691832467L207.62099933624268,144.89692732517068L209.9278993288676,145.74414357827212L212.23479932149252,146.59657308217993L214.54169931411744,147.45428415115524L216.84859930674236,148.31755706425952L219.15549929936725,149.184167083843L221.4623992919922,150.0539758198587L223.76929928461712,150.92713952878813L226.076199277242,151.80423054553842L228.38309926986693,152.68463510901773L230.68999926249188,153.56918141511548L232.99689925511677,154.457169928821L235.3037992477417,155.3486595101454L237.6106992403666,156.24201044153276L239.91759923299153,157.13671747346535L242.22449922561646,158.03319532776342L244.53139921824138,158.93049638497126L246.8382992108663,159.82948781646965L249.14519920349122,160.729014891524L251.45209919611614,161.62910264322213" fill="none"></path></g></g></g></g><g opacity="0.2"><g><g><g><path style="fill: none;" stroke="rgb(255, 112, 67)" stroke-width="2px" d="M27.682799911499025,-18.274951184663575L29.989699904123942,0.3424486475349028L32.29659989674886,16.50532608291098L34.60349988937378,30.422462090631363L36.9103998819987,42.35647800440429L39.21729987462361,52.59571888766349L41.524199867248534,61.47279854802124L43.831099859873454,69.1869263342813L46.13799985249837,75.80450536271161L48.44489984512329,81.43201990984991L50.75179983774821,86.29320660168003L53.05869983037313,90.46344194856013L55.36559982299805,94.04921022702798L57.67249981562297,97.14383473562226L59.979399808247884,99.7915842185216L62.286299800872804,102.07022809117493L64.59319979349772,104.06890206821214L66.90009978612264,105.79538309117814L69.20699977874756,107.29992216697836L71.51389977137248,108.62379690842805L73.8207997639974,109.75564101634615L76.12769975662232,110.77920616890846L78.43459974924723,111.69150123475156L80.74149974187216,112.49850847660224L83.04839973449707,113.23432679200357L85.35529972712199,113.89895618095547L87.66219971974691,114.51153988418389L89.96909971237183,115.08643533223321L92.27599970499674,115.61466913101317L94.58289969762167,116.10401822206867L96.88979969024658,116.56225954694462L99.1966996828715,116.98999133191367L101.50359967549642,117.41353553297392L103.81049966812134,117.81554358821757L106.11739966074626,118.21276583327975L108.42429965337118,118.613577435978L110.7311996459961,119.028148242948L113.038099638621,119.44092437109998L115.34499963124594,119.85788808316072L117.65189962387085,120.2802358316756L119.95879961649577,120.71694101073493L122.26569960912069,121.16620894152061L124.57259960174561,121.62504849266924L126.87949959437051,122.08628094890858L129.18639958699544,122.55349566787477L131.49329957962036,123.03506781738538L133.80019957224528,123.52740803980433L136.1070995648702,124.02812343004082L138.41399955749512,124.5443927033671L140.72089955012004,125.07801053860122L143.02779954274496,125.63077161456123L145.33469953536988,126.19848834733833L147.6415995279948,126.77996428438718L149.9484995206197,127.37878878334385L152.25539951324464,127.99077426029956L154.56229950586956,128.6153224889817L156.86919949849445,129.25482637448084L159.17609949111937,129.90988414306983L161.48299948374432,130.57810288965783L163.78989947636921,131.26067906679026L166.09679946899413,131.95222863801297L168.40369946161906,132.65993031859813L170.71059945424398,133.38019475090965L173.0174994468689,134.10943257731145L175.32439943949382,134.85242960798496L177.63129943211874,135.6061947115668L179.93819942474366,136.3719243406023L182.24509941736858,137.1454309111827L184.55199940999347,137.92850910212604L186.85889940261842,138.7187660083416L189.16579939524334,139.51560340355667L191.47269938786823,140.3220124191347L193.77959938049315,141.1356001499849L196.0864993731181,141.95935772747077L198.393399365743,142.7914904727742L200.70029935836791,143.6272125757137L203.00719935099283,144.46712226256207L205.31409934361776,145.3100230807738L207.62099933624268,146.1583079354397L209.9278993288676,147.01496795792318L212.23479932149252,147.87521733804277L214.54169931411744,148.7408507546165L216.84859930674236,149.61246643391706L219.15549929936725,150.48408211321765L221.4623992919922,151.35868892388163L223.76929928461712,152.23688509218175L226.076199277242,153.1198670706633L228.38309926986693,154.00524195423563L230.68999926249188,154.89600087426209L232.99689925511677,155.7891526993793L235.3037992477417,156.68589388213258L237.6106992403666,157.5820368386132L239.91759923299153,158.47877802136648L242.22449922561646,159.37791210921054L244.53139921824138,160.2764479707819L246.8382992108663,161.17797496371668L249.14519920349122,162.07830550410608L251.45209919611614,162.97923427076816" fill="none"></path></g></g></g></g></g></g><g transform="translate(53, 175)" clip-path="url(#clip_1)"><clipPath id="clip_1"><rect width="276" height="24"></rect></clipPath><g><g><line x1="0" y1="0" x2="0" y2="5" style="visibility: inherit;" fill="rgb(0, 0, 0)" stroke="rgb(204, 204, 204)" stroke-width="1px"></line><line x1="23.068999926249184" y1="0" x2="23.068999926249184" y2="5" style="visibility: inherit;" fill="rgb(0, 0, 0)" stroke="rgb(204, 204, 204)" stroke-width="1px"></line><line x1="46.13799985249837" y1="0" x2="46.13799985249837" y2="5" style="visibility: inherit;" fill="rgb(0, 0, 0)" stroke="rgb(204, 204, 204)" stroke-width="1px"></line><line x1="69.20699977874756" y1="0" x2="69.20699977874756" y2="5" style="visibility: inherit;" fill="rgb(0, 0, 0)" stroke="rgb(204, 204, 204)" stroke-width="1px"></line><line x1="92.27599970499674" y1="0" x2="92.27599970499674" y2="5" style="visibility: inherit;" fill="rgb(0, 0, 0)" stroke="rgb(204, 204, 204)" stroke-width="1px"></line><line x1="115.34499963124594" y1="0" x2="115.34499963124594" y2="5" style="visibility: inherit;" fill="rgb(0, 0, 0)" stroke="rgb(204, 204, 204)" stroke-width="1px"></line><line x1="138.41399955749512" y1="0" x2="138.41399955749512" y2="5" style="visibility: inherit;" fill="rgb(0, 0, 0)" stroke="rgb(204, 204, 204)" stroke-width="1px"></line><line x1="161.48299948374432" y1="0" x2="161.48299948374432" y2="5" style="visibility: inherit;" fill="rgb(0, 0, 0)" stroke="rgb(204, 204, 204)" stroke-width="1px"></line><line x1="184.55199940999347" y1="0" x2="184.55199940999347" y2="5" style="visibility: inherit;" fill="rgb(0, 0, 0)" stroke="rgb(204, 204, 204)" stroke-width="1px"></line><line x1="207.62099933624268" y1="0" x2="207.62099933624268" y2="5" style="visibility: inherit;" fill="rgb(0, 0, 0)" stroke="rgb(204, 204, 204)" stroke-width="1px"></line><line x1="230.68999926249188" y1="0" x2="230.68999926249188" y2="5" style="visibility: inherit;" fill="rgb(0, 0, 0)" stroke="rgb(204, 204, 204)" stroke-width="1px"></line><line x1="253.75899918874103" y1="0" x2="253.75899918874103" y2="5" style="visibility: inherit;" fill="rgb(0, 0, 0)" stroke="rgb(204, 204, 204)" stroke-width="1px"></line><line x1="276.82799911499023" y1="0" x2="276.82799911499023" y2="5" style="visibility: inherit;" fill="rgb(0, 0, 0)" stroke="rgb(204, 204, 204)" stroke-width="1px"></line></g><g transform="translate(0, 8)"><text style="text-anchor: middle; visibility: hidden; font-family: Roboto, sans-serif; font-size: 12px; font-weight: 200;" x="0" y="0" dx="0em" dy="0.95em" fill="rgb(33, 33, 33)" stroke="none" stroke-width="1px">-10</text><text style="text-anchor: middle; visibility: inherit; font-family: Roboto, sans-serif; font-size: 12px; font-weight: 200;" x="23.068999926249184" y="0" dx="0em" dy="0.95em" fill="rgb(33, 33, 33)" stroke="none" stroke-width="1px">0</text><text style="text-anchor: middle; visibility: inherit; font-family: Roboto, sans-serif; font-size: 12px; font-weight: 200;" x="46.13799985249837" y="0" dx="0em" dy="0.95em" fill="rgb(33, 33, 33)" stroke="none" stroke-width="1px">10</text><text style="text-anchor: middle; visibility: inherit; font-family: Roboto, sans-serif; font-size: 12px; font-weight: 200;" x="69.20699977874756" y="0" dx="0em" dy="0.95em" fill="rgb(33, 33, 33)" stroke="none" stroke-width="1px">20</text><text style="text-anchor: middle; visibility: inherit; font-family: Roboto, sans-serif; font-size: 12px; font-weight: 200;" x="92.27599970499674" y="0" dx="0em" dy="0.95em" fill="rgb(33, 33, 33)" stroke="none" stroke-width="1px">30</text><text style="text-anchor: middle; visibility: inherit; font-family: Roboto, sans-serif; font-size: 12px; font-weight: 200;" x="115.34499963124594" y="0" dx="0em" dy="0.95em" fill="rgb(33, 33, 33)" stroke="none" stroke-width="1px">40</text><text style="text-anchor: middle; visibility: inherit; font-family: Roboto, sans-serif; font-size: 12px; font-weight: 200;" x="138.41399955749512" y="0" dx="0em" dy="0.95em" fill="rgb(33, 33, 33)" stroke="none" stroke-width="1px">50</text><text style="text-anchor: middle; visibility: inherit; font-family: Roboto, sans-serif; font-size: 12px; font-weight: 200;" x="161.48299948374432" y="0" dx="0em" dy="0.95em" fill="rgb(33, 33, 33)" stroke="none" stroke-width="1px">60</text><text style="text-anchor: middle; visibility: inherit; font-family: Roboto, sans-serif; font-size: 12px; font-weight: 200;" x="184.55199940999347" y="0" dx="0em" dy="0.95em" fill="rgb(33, 33, 33)" stroke="none" stroke-width="1px">70</text><text style="text-anchor: middle; visibility: inherit; font-family: Roboto, sans-serif; font-size: 12px; font-weight: 200;" x="207.62099933624268" y="0" dx="0em" dy="0.95em" fill="rgb(33, 33, 33)" stroke="none" stroke-width="1px">80</text><text style="text-anchor: middle; visibility: inherit; font-family: Roboto, sans-serif; font-size: 12px; font-weight: 200;" x="230.68999926249188" y="0" dx="0em" dy="0.95em" fill="rgb(33, 33, 33)" stroke="none" stroke-width="1px">90</text><text style="text-anchor: middle; visibility: inherit; font-family: Roboto, sans-serif; font-size: 12px; font-weight: 200;" x="253.75899918874103" y="0" dx="0em" dy="0.95em" fill="rgb(33, 33, 33)" stroke="none" stroke-width="1px">100</text><text style="text-anchor: middle; visibility: hidden; font-family: Roboto, sans-serif; font-size: 12px; font-weight: 200;" x="276.82799911499023" y="0" dx="0em" dy="0.95em" fill="rgb(33, 33, 33)" stroke="none" stroke-width="1px">110</text></g><line x1="0" y1="0" x2="276.82799911499023" y2="0" fill="rgb(0, 0, 0)" stroke="rgb(204, 204, 204)" stroke-width="1px"></line></g></g></g></g></svg>