<svg viewBox="0 0 330 200" xmlns="http://www.w3.org/2000/svg"><g><g><g><g><g><line x1="61.91500186920166" y1="176.5999994277954" x2="56.91500186920166" y2="176.5999994277954" style="visibility: inherit;" fill="rgb(0, 0, 0)" stroke="rgb(204, 204, 204)" stroke-width="1px"></line><line x1="61.91500186920166" y1="163.98571375438146" x2="56.91500186920166" y2="163.98571375438146" style="visibility: inherit;" fill="rgb(0, 0, 0)" stroke="rgb(204, 204, 204)" stroke-width="1px"></line><line x1="61.91500186920166" y1="151.37142808096752" x2="56.91500186920166" y2="151.37142808096752" style="visibility: inherit;" fill="rgb(0, 0, 0)" stroke="rgb(204, 204, 204)" stroke-width="1px"></line><line x1="61.91500186920166" y1="138.75714240755354" x2="56.91500186920166" y2="138.75714240755354" style="visibility: inherit;" fill="rgb(0, 0, 0)" stroke="rgb(204, 204, 204)" stroke-width="1px"></line><line x1="61.91500186920166" y1="126.14285673413958" x2="56.91500186920166" y2="126.14285673413958" style="visibility: inherit;" fill="rgb(0, 0, 0)" stroke="rgb(204, 204, 204)" stroke-width="1px"></line><line x1="61.91500186920166" y1="113.52857106072561" x2="56.91500186920166" y2="113.52857106072561" style="visibility: inherit;" fill="rgb(0, 0, 0)" stroke="rgb(204, 204, 204)" stroke-width="1px"></line><line x1="61.91500186920166" y1="100.91428538731165" x2="56.91500186920166" y2="100.91428538731165" style="visibility: inherit;" fill="rgb(0, 0, 0)" stroke="rgb(204, 204, 204)" stroke-width="1px"></line><line x1="61.91500186920166" y1="88.2999997138977" x2="56.91500186920166" y2="88.2999997138977" style="visibility: inherit;" fill="rgb(0, 0, 0)" stroke="rgb(204, 204, 204)" stroke-width="1px"></line><line x1="61.91500186920166" y1="75.68571404048376" x2="56.91500186920166" y2="75.68571404048376" style="visibility: inherit;" fill="rgb(0, 0, 0)" stroke="rgb(204, 204, 204)" stroke-width="1px"></line><line x1="61.91500186920166" y1="63.07142836706978" x2="56.91500186920166" y2="63.07142836706978" style="visibility: inherit;" fill="rgb(0, 0, 0)" stroke="rgb(204, 204, 204)" stroke-width="1px"></line><line x1="61.91500186920166" y1="50.457142693655825" x2="56.91500186920166" y2="50.457142693655825" style="visibility: inherit;" fill="rgb(0, 0, 0)" stroke="rgb(204, 204, 204)" stroke-width="1px"></line><line x1="61.91500186920166" y1="37.84285702024188" x2="56.91500186920166" y2="37.84285702024188" style="visibility: inherit;" fill="rgb(0, 0, 0)" stroke="rgb(204, 204, 204)" stroke-width="1px"></line><line x1="61.91500186920166" y1="25.228571346827923" x2="56.91500186920166" y2="25.228571346827923" style="visibility: inherit;" fill="rgb(0, 0, 0)" stroke="rgb(204, 204, 204)" stroke-width="1px"></line><line x1="61.91500186920166" y1="12.614285673413953" x2="56.91500186920166" y2="12.614285673413953" style="visibility: inherit;" fill="rgb(0, 0, 0)" stroke="rgb(204, 204, 204)" stroke-width="1px"></line><line x1="61.91500186920166" y1="0" x2="56.91500186920166" y2="0" style="visibility: inherit;" fill="rgb(0, 0, 0)" stroke="rgb(204, 204, 204)" stroke-width="1px"></line></g><g transform="translate(51.91500186920166, 0)"><text style="text-anchor: end; visibility: hidden; font-family: Roboto, sans-serif; font-size: 12px; font-weight: 200;" x="0" y="176.5999994277954" dx="0em" dy="0.3em" fill="rgb(33, 33, 33)" stroke="none" stroke-width="1px">0.694</text><text style="text-anchor: end; visibility: inherit; font-family: Roboto, sans-serif; font-size: 12px; font-weight: 200;" x="0" y="163.98571375438146" dx="0em" dy="0.3em" fill="rgb(33, 33, 33)" stroke="none" stroke-width="1px">0.695</text><text style="text-anchor: end; visibility: hidden; font-family: Roboto, sans-serif; font-size: 12px; font-weight: 200;" x="0" y="151.37142808096752" dx="0em" dy="0.3em" fill="rgb(33, 33, 33)" stroke="none" stroke-width="1px">0.696</text><text style="text-anchor: end; visibility: inherit; font-family: Roboto, sans-serif; font-size: 12px; font-weight: 200;" x="0" y="138.75714240755354" dx="0em" dy="0.3em" fill="rgb(33, 33, 33)" stroke="none" stroke-width="1px">0.697</text><text style="text-anchor: end; visibility: hidden; font-family: Roboto, sans-serif; font-size: 12px; font-weight: 200;" x="0" y="126.14285673413958" dx="0em" dy="0.3em" fill="rgb(33, 33, 33)" stroke="none" stroke-width="1px">0.698</text><text style="text-anchor: end; visibility: inherit; font-family: Roboto, sans-serif; font-size: 12px; font-weight: 200;" x="0" y="113.52857106072561" dx="0em" dy="0.3em" fill="rgb(33, 33, 33)" stroke="none" stroke-width="1px">0.699</text><text style="text-anchor: end; visibility: hidden; font-family: Roboto, sans-serif; font-size: 12px; font-weight: 200;" x="0" y="100.91428538731165" dx="0em" dy="0.3em" fill="rgb(33, 33, 33)" stroke="none" stroke-width="1px">0.7</text><text style="text-anchor: end; visibility: inherit; font-family: Roboto, sans-serif; font-size: 12px; font-weight: 200;" x="0" y="88.2999997138977" dx="0em" dy="0.3em" fill="rgb(33, 33, 33)" stroke="none" stroke-width="1px">0.701</text><text style="text-anchor: end; visibility: hidden; font-family: Roboto, sans-serif; font-size: 12px; font-weight: 200;" x="0" y="75.68571404048376" dx="0em" dy="0.3em" fill="rgb(33, 33, 33)" stroke="none" stroke-width="1px">0.702</text><text style="text-anchor: end; visibility: inherit; font-family: Roboto, sans-serif; font-size: 12px; font-weight: 200;" x="0" y="63.07142836706978" dx="0em" dy="0.3em" fill="rgb(33, 33, 33)" stroke="none" stroke-width="1px">0.703</text><text style="text-anchor: end; visibility: hidden; font-family: Roboto, sans-serif; font-size: 12px; font-weight: 200;" x="0" y="50.457142693655825" dx="0em" dy="0.3em" fill="rgb(33, 33, 33)" stroke="none" stroke-width="1px">0.704</text><text style="text-anchor: end; visibility: inherit; font-family: Roboto, sans-serif; font-size: 12px; font-weight: 200;" x="0" y="37.84285702024188" dx="0em" dy="0.3em" fill="rgb(33, 33, 33)" stroke="none" stroke-width="1px">0.705</text><text style="text-anchor: end; visibility: hidden; font-family: Roboto, sans-serif; font-size: 12px; font-weight: 200;" x="0" y="25.228571346827923" dx="0em" dy="0.3em" fill="rgb(33, 33, 33)" stroke="none" stroke-width="1px">0.706</text><text style="text-anchor: end; visibility: inherit; font-family: Roboto, sans-serif; font-size: 12px; font-weight: 200;" x="0" y="12.614285673413953" dx="0em" dy="0.3em" fill="rgb(33, 33, 33)" stroke="none" stroke-width="1px">0.707</text><text style="text-anchor: end; visibility: hidden; font-family: Roboto, sans-serif; font-size: 12px; font-weight: 200;" x="0" y="0" dx="0em" dy="0.3em" fill="rgb(33, 33, 33)" stroke="none" stroke-width="1px">0.708</text></g><line x1="61.91500186920166" y1="0" x2="61.91500186920166" y2="176.5999994277954" fill="rgb(0, 0, 0)" stroke="rgb(204, 204, 204)" stroke-width="1px"></line></g></g><g transform="translate(61, 0)" clip-path="url(#clip_0)"><clipPath id="clip_0"><rect width="268" height="176"></rect></clipPath><g><g><g><line x1="0" y1="0" x2="0" y2="176.5999994277954" fill="rgb(0, 0, 0)" stroke="rgb(66, 66, 66)" stroke-width="1px" opacity="0.25"></line><line x1="22.34041651089986" y1="0" x2="22.34041651089986" y2="176.5999994277954" fill="rgb(0, 0, 0)" stroke="rgb(66, 66, 66)" stroke-width="1px" opacity="0.25"></line><line x1="44.68083302179972" y1="0" x2="44.68083302179972" y2="176.5999994277954" fill="rgb(0, 0, 0)" stroke="rgb(66, 66, 66)" stroke-width="1px" opacity="0.25"></line><line x1="67.02124953269958" y1="0" x2="67.02124953269958" y2="176.5999994277954" fill="rgb(0, 0, 0)" stroke="rgb(66, 66, 66)" stroke-width="1px" opacity="0.25"></line><line x1="89.36166604359944" y1="0" x2="89.36166604359944" y2="176.5999994277954" fill="rgb(0, 0, 0)" stroke="rgb(66, 66, 66)" stroke-width="1px" opacity="0.25"></line><line x1="111.70208255449931" y1="0" x2="111.70208255449931" y2="176.5999994277954" fill="rgb(0, 0, 0)" stroke="rgb(66, 66, 66)" stroke-width="1px" opacity="0.25"></line><line x1="134.04249906539917" y1="0" x2="134.04249906539917" y2="176.5999994277954" fill="rgb(0, 0, 0)" stroke="rgb(66, 66, 66)" stroke-width="1px" opacity="0.25"></line><line x1="156.38291557629904" y1="0" x2="156.38291557629904" y2="176.5999994277954" fill="rgb(0, 0, 0)" stroke="rgb(66, 66, 66)" stroke-width="1px" opacity="0.25"></line><line x1="178.72333208719888" y1="0" x2="178.72333208719888" y2="176.5999994277954" fill="rgb(0, 0, 0)" stroke="rgb(66, 66, 66)" stroke-width="1px" opacity="0.25"></line><line x1="201.06374859809875" y1="0" x2="201.06374859809875" y2="176.5999994277954" fill="rgb(0, 0, 0)" stroke="rgb(66, 66, 66)" stroke-width="1px" opacity="0.25"></line><line x1="223.40416510899863" y1="0" x2="223.40416510899863" y2="176.5999994277954" fill="rgb(0, 0, 0)" stroke="rgb(66, 66, 66)" stroke-width="1px" opacity="0.25"></line><line x1="245.74458161989847" y1="0" x2="245.74458161989847" y2="176.5999994277954" fill="rgb(0, 0, 0)" stroke="rgb(66, 66, 66)" stroke-width="1px" opacity="0.25"></line><line x1="268.08499813079834" y1="0" x2="268.08499813079834" y2="176.5999994277954" fill="rgb(0, 0, 0)" stroke="rgb(66, 66, 66)" stroke-width="1px" opacity="0.25"></line></g><g><line x1="0" y1="176.5999994277954" x2="268.08499813079834" y2="176.5999994277954" fill="rgb(0, 0, 0)" stroke="rgb(66, 66, 66)" stroke-width="1px" opacity="0.25"></line><line x1="0" y1="163.98571375438146" x2="268.08499813079834" y2="163.98571375438146" fill="rgb(0, 0, 0)" stroke="rgb(66, 66, 66)" stroke-width="1px" opacity="0.25"></line><line x1="0" y1="151.37142808096752" x2="268.08499813079834" y2="151.37142808096752" fill="rgb(0, 0, 0)" stroke="rgb(66, 66, 66)" stroke-width="1px" opacity="0.25"></line><line x1="0" y1="138.75714240755354" x2="268.08499813079834" y2="138.75714240755354" fill="rgb(0, 0, 0)" stroke="rgb(66, 66, 66)" stroke-width="1px" opacity="0.25"></line><line x1="0" y1="126.14285673413958" x2="268.08499813079834" y2="126.14285673413958" fill="rgb(0, 0, 0)" stroke="rgb(66, 66, 66)" stroke-width="1px" opacity="0.25"></line><line x1="0" y1="113.52857106072561" x2="268.08499813079834" y2="113.52857106072561" fill="rgb(0, 0, 0)" stroke="rgb(66, 66, 66)" stroke-width="1px" opacity="0.25"></line><line x1="0" y1="100.91428538731165" x2="268.08499813079834" y2="100.91428538731165" fill="rgb(0, 0, 0)" stroke="rgb(66, 66, 66)" stroke-width="1px" opacity="0.25"></line><line x1="0" y1="88.2999997138977" x2="268.08499813079834" y2="88.2999997138977" fill="rgb(0, 0, 0)" stroke="rgb(66, 66, 66)" stroke-width="1px" opacity="0.25"></line><line x1="0" y1="75.68571404048376" x2="268.08499813079834" y2="75.68571404048376" fill="rgb(0, 0, 0)" stroke="rgb(66, 66, 66)" stroke-width="1px" opacity="0.25"></line><line x1="0" y1="63.07142836706978" x2="268.08499813079834" y2="63.07142836706978" fill="rgb(0, 0, 0)" stroke="rgb(66, 66, 66)" stroke-width="1px" opacity="0.25"></line><line x1="0" y1="50.457142693655825" x2="268.08499813079834" y2="50.457142693655825" fill="rgb(0, 0, 0)" stroke="rgb(66, 66, 66)" stroke-width="1px" opacity="0.25"></line><line x1="0" y1="37.84285702024188" x2="268.08499813079834" y2="37.84285702024188" fill="rgb(0, 0, 0)" stroke="rgb(66, 66, 66)" stroke-width="1px" opacity="0.25"></line><line x1="0" y1="25.228571346827923" x2="268.08499813079834" y2="25.228571346827923" fill="rgb(0, 0, 0)" stroke="rgb(66, 66, 66)" stroke-width="1px" opacity="0.25"></line><line x1="0" y1="12.614285673413953" x2="268.08499813079834" y2="12.614285673413953" fill="rgb(0, 0, 0)" stroke="rgb(66, 66, 66)" stroke-width="1px" opacity="0.25"></line><line x1="0" y1="0" x2="268.08499813079834" y2="0" fill="rgb(0, 0, 0)" stroke="rgb(66, 66, 66)" stroke-width="1px" opacity="0.25"></line></g></g></g><g><g><line x1="0" y1="8930.914256777074" x2="268.08499813079834" y2="8930.914256777074" fill="rgb(0, 0, 0)" stroke="rgb(153, 153, 153)" stroke-width="1.5px"></line></g></g><g><g><line x1="22.34041651089986" y1="0" x2="22.34041651089986" y2="176.5999994277954" fill="rgb(0, 0, 0)" stroke="rgb(153, 153, 153)" stroke-width="1.5px"></line></g></g><g><g><g><g><g><path style="fill: none;" stroke="rgb(255, 112, 67)" stroke-width="2px" d="M31.276583115259807,-5.654663474474038L33.51062476634979,8.064884545566565L35.74466641743978,20.774341517366327L37.97870806852976,32.38077658596832L40.21274971961975,42.86340870237868L42.44679137070973,52.25204607822206L44.68083302179972,60.61032611058828L46.91487467288971,68.02099572823336L49.14891632397969,74.57468564082161L51.38295797506969,80.36270141790195L53.61699962615967,85.47305609833502L55.85104127724966,89.98744429719858L58.085082928339645,93.97997419638676L60.31912457942963,97.51711574720649L62.553166230519615,100.65786632902156L64.7872078816096,103.45379472518223L67.02124953269958,105.94994037127063L69.25529118378958,108.18623954001573L71.48933283487956,110.19686905208086L73.72337448596954,112.01165269738877L75.95741613705952,113.65690277525606L78.19145778814952,115.15472081480426L80.4254994392395,116.52528410874217L82.6595410903295,117.78581130213773L84.89358274141946,118.95084381441276L87.12762439250946,120.03331684031684L89.36166604359944,121.04429965466366L91.59570769468944,121.99434350839088L93.82974934577942,122.89158361911082L96.0637909968694,123.74360783806114L98.29783264795938,124.55707410570014L100.53187429904938,125.33748092282656L102.76591595013937,126.08993187600483L104.99995760122935,126.81869210810623L107.23399925231934,127.52752369625809L109.46804090340932,128.2201876264195L111.70208255449931,128.89924123797272L113.9361242055893,129.56712117845274L116.17016585667929,130.22619168033177L118.40420750776926,130.87847277907403L120.63824915885925,131.5254772439384L122.87229080994923,132.16901498048705L125.10633246103923,132.80987118404437L127.34037411212921,133.44971996382586L129.5744157632192,134.08866354134076L131.80845741430917,134.72796624151488L134.04249906539917,135.36808591130398L136.27654071648914,136.00989875488597L138.51058236757916,136.6536297467634L140.74462401866913,137.2997146196492L142.97866566975912,137.94841481316305L145.2127073208491,138.60048868709566L147.4467489719391,139.25518826529319L149.68079062302908,139.91356850209567L151.91483227411905,140.57536012608674L154.14887392520905,141.2404015744184L156.38291557629904,141.90919740539496L158.616957227389,142.5817496059921L160.850998878479,143.25745787237986L163.08504052956897,143.93686426628452L165.319082180659,144.6196925287251L167.55312383174896,145.30577690431195L169.78716548283893,145.99471719180963L172.02120713392895,146.68717551448933L174.25524878501892,147.38264690230238L176.48929043610892,148.081129121221L178.72333208719888,148.78232008282328L180.95737373828888,149.48603853405316L183.19141538937888,150.19217572308244L185.42545704046884,150.90036565080464L187.65949869155884,151.61099021376845L189.89354034264883,152.32367705388995L192.1275819937388,153.03820275632057L194.3616236448288,153.7544332721477L196.59566529591876,154.47198742402279L198.8297069470088,155.19093725353744L201.06374859809875,155.91132598565028L203.29779024918872,156.63287880732756L205.53183190027875,157.35543083075217L207.7658735513687,158.07858237522402L209.9999152024587,158.80239438033118L212.23395685354868,159.52660266181869L214.46799850463867,160.25134945714106L216.70204015572867,160.97581786475158L218.93608180681863,161.70041998774224L221.17012345790863,162.4248015919534L223.40416510899863,163.14935163290392L225.6382067600886,163.8734012398849L227.8722484111786,164.5971505864834L230.10629006226856,165.32011828083958L232.34033171335858,166.0423162358443L234.57437336444855,166.76375159923063L236.80841501553851,167.48412791163346L239.04245666662854,168.20356804543866L241.2764983177185,168.9218449760728L243.5105399688085,169.6385217407843" fill="none"></path></g></g></g></g><g opacity="0.2"><g><g><g><path style="fill: none;" stroke="rgb(255, 112, 67)" stroke-width="2px" d="M29.042541464169823,-2.4654359192669895L31.276583115259807,13.337368090874778L33.51062476634979,27.043958494570838L35.74466641743978,38.94906833835163L37.97870806852976,49.30307033776461L40.21274971961975,58.32325492762428L42.44679137070973,66.19307839199547L44.68083302179972,73.07193717440991L46.91487467288971,79.09667161789959L49.14891632397969,84.38382157504664L51.38295797506969,89.03338575806674L53.61699962615967,93.13258108889235L55.85104127724966,96.75584269917276L58.085082928339645,99.96707954032392L60.31912457942963,102.82192999357866L62.553166230519615,105.36851374000317L64.7872078816096,107.64743176049701L67.02124953269958,109.69402194584318L69.25529118378958,111.54061470675802L71.48933283487956,113.21277362380795L73.72337448596954,114.73380666750938L75.95741613705952,116.12476619832879L78.19145778814952,117.401441486616L80.4254994392395,118.58112554275418L82.6595410903295,119.67660015702654L84.89358274141946,120.69839150966632L87.12762439250946,121.65702578090672L89.36166604359944,122.560773540931L91.59570769468944,123.41940909995574L93.82974934577942,124.23744367808088L96.0637909968694,125.02164410545636L98.29783264795938,125.7772734721988L100.53187429904938,126.50809112839147L102.76591595013937,127.21860829413436L104.99995760122935,127.91183244949407L107.23399925231934,128.5907710745373L109.46804090340932,129.25918351934726L111.70208255449931,129.91782165394065L113.9361242055893,130.56894108836747L116.17016585667929,131.21479743267767L118.40420750776926,131.85689442690457L120.63824915885925,132.49598394106485L122.87229080994923,133.13432158520845L125.10633246103923,133.77115548931874L127.34037411212921,134.40949313346235L129.5744157632192,135.0470789075893L131.80845741430917,135.68692029176623L134.04249906539917,136.32826541597646L136.27654071648914,136.97261802025335L138.51058236757916,137.6192262345802L140.74462401866913,138.2688419289737L142.97866566975912,138.92146510343383L145.2127073208491,139.5785994979939L147.4467489719391,140.23723763258732L149.68079062302908,140.90113885729735L151.91483227411905,141.56804756207399L154.14887392520905,142.2379637469173L156.38291557629904,142.91239115186053L158.616957227389,143.5905779068871L160.850998878479,144.27102027196358L163.08504052956897,144.95597385714007L165.319082180659,145.64393492238318L167.55312383174896,146.33490346769293L169.78716548283893,147.02812762305265L172.02120713392895,147.72586299851233L174.25524878501892,148.42585398402198L176.48929043610892,149.12885244959827L178.72333208719888,149.83410652522454L180.95737373828888,150.5416162109008L183.19141538937888,151.251381506627L185.42545704046884,151.96265054238657L187.65949869155884,152.67692705821273L189.89354034264883,153.39270731407223L192.1275819937388,154.10999130996507L194.3616236448288,154.8287790458912L196.59566529591876,155.548318651834L198.8297069470088,156.2693619978101L201.06374859809875,156.99190908381954L203.29779024918872,157.71520803984563L205.53183190027875,158.43925886588838L207.7658735513687,159.16330969193112L209.9999152024587,159.88811238799053L212.23395685354868,160.61291508404994L214.46799850463867,161.33846965012603L216.70204015572867,162.06252047616877L218.93608180681863,162.78732317222816L221.17012345790863,163.51137399827093L223.40416510899863,164.2361766943303L225.6382067600886,164.9594756503564L227.8722484111786,165.6827746063825L230.10629006226856,166.40456982237527L232.34033171335858,167.12561316835138L234.57437336444855,167.84590464431085L236.80841501553851,168.56469238023698L239.04245666662854,169.28272824614646L241.2764983177185,169.9992603720226L243.5105399688085,170.7135368878488" fill="none"></path></g></g></g></g></g></g><g transform="translate(61, 176)" clip-path="url(#clip_1)"><clipPath id="clip_1"><rect width="268" height="23"></rect></clipPath><g><g><line x1="0" y1="0" x2="0" y2="5" style="visibility: inherit;" fill="rgb(0, 0, 0)" stroke="rgb(204, 204, 204)" stroke-width="1px"></line><line x1="22.34041651089986" y1="0" x2="22.34041651089986" y2="5" style="visibility: inherit;" fill="rgb(0, 0, 0)" stroke="rgb(204, 204, 204)" stroke-width="1px"></line><line x1="44.68083302179972" y1="0" x2="44.68083302179972" y2="5" style="visibility: inherit;" fill="rgb(0, 0, 0)" stroke="rgb(204, 204, 204)" stroke-width="1px"></line><line x1="67.02124953269958" y1="0" x2="67.02124953269958" y2="5" style="visibility: inherit;" fill="rgb(0, 0, 0)" stroke="rgb(204, 204, 204)" stroke-width="1px"></line><line x1="89.36166604359944" y1="0" x2="89.36166604359944" y2="5" style="visibility: inherit;" fill="rgb(0, 0, 0)" stroke="rgb(204, 204, 204)" stroke-width="1px"></line><line x1="111.70208255449931" y1="0" x2="111.70208255449931" y2="5" style="visibility: inherit;" fill="rgb(0, 0, 0)" stroke="rgb(204, 204, 204)" stroke-width="1px"></line><line x1="134.04249906539917" y1="0" x2="134.04249906539917" y2="5" style="visibility: inherit;" fill="rgb(0, 0, 0)" stroke="rgb(204, 204, 204)" stroke-width="1px"></line><line x1="156.38291557629904" y1="0" x2="156.38291557629904" y2="5" style="visibility: inherit;" fill="rgb(0, 0, 0)" stroke="rgb(204, 204, 204)" stroke-width="1px"></line><line x1="178.72333208719888" y1="0" x2="178.72333208719888" y2="5" style="visibility: inherit;" fill="rgb(0, 0, 0)" stroke="rgb(204, 204, 204)" stroke-width="1px"></line><line x1="201.06374859809875" y1="0" x2="201.06374859809875" y2="5" style="visibility: inherit;" fill="rgb(0, 0, 0)" stroke="rgb(204, 204, 204)" stroke-width="1px"></line><line x1="223.40416510899863" y1="0" x2="223.40416510899863" y2="5" style="visibility: inherit;" fill="rgb(0, 0, 0)" stroke="rgb(204, 204, 204)" stroke-width="1px"></line><line x1="245.74458161989847" y1="0" x2="245.74458161989847" y2="5" style="visibility: inherit;" fill="rgb(0, 0, 0)" stroke="rgb(204, 204, 204)" stroke-width="1px"></line><line x1="268.08499813079834" y1="0" x2="268.08499813079834" y2="5" style="visibility: inherit;" fill="rgb(0, 0, 0)" stroke="rgb(204, 204, 204)" stroke-width="1px"></line></g><g transform="translate(0, 8)"><text style="text-anchor: middle; visibility: hidden; font-family: Roboto, sans-serif; font-size: 12px; font-weight: 200;" x="0" y="0" dx="0em" dy="0.95em" fill="rgb(33, 33, 33)" stroke="none" stroke-width="1px">-10</text><text style="text-anchor: middle; visibility: inherit; font-family: Roboto, sans-serif; font-size: 12px; font-weight: 200;" x="22.34041651089986" y="0" dx="0em" dy="0.95em" fill="rgb(33, 33, 33)" stroke="none" stroke-width="1px">0</text><text style="text-anchor: middle; visibility: hidden; font-family: Roboto, sans-serif; font-size: 12px; font-weight: 200;" x="44.68083302179972" y="0" dx="0em" dy="0.95em" fill="rgb(33, 33, 33)" stroke="none" stroke-width="1px">10</text><text style="text-anchor: middle; visibility: inherit; font-family: Roboto, sans-serif; font-size: 12px; font-weight: 200;" x="67.02124953269958" y="0" dx="0em" dy="0.95em" fill="rgb(33, 33, 33)" stroke="none" stroke-width="1px">20</text><text style="text-anchor: middle; visibility: hidden; font-family: Roboto, sans-serif; font-size: 12px; font-weight: 200;" x="89.36166604359944" y="0" dx="0em" dy="0.95em" fill="rgb(33, 33, 33)" stroke="none" stroke-width="1px">30</text><text style="text-anchor: middle; visibility: inherit; font-family: Roboto, sans-serif; font-size: 12px; font-weight: 200;" x="111.70208255449931" y="0" dx="0em" dy="0.95em" fill="rgb(33, 33, 33)" stroke="none" stroke-width="1px">40</text><text style="text-anchor: middle; visibility: hidden; font-family: Roboto, sans-serif; font-size: 12px; font-weight: 200;" x="134.04249906539917" y="0" dx="0em" dy="0.95em" fill="rgb(33, 33, 33)" stroke="none" stroke-width="1px">50</text><text style="text-anchor: middle; visibility: inherit; font-family: Roboto, sans-serif; font-size: 12px; font-weight: 200;" x="156.38291557629904" y="0" dx="0em" dy="0.95em" fill="rgb(33, 33, 33)" stroke="none" stroke-width="1px">60</text><text style="text-anchor: middle; visibility: hidden; font-family: Roboto, sans-serif; font-size: 12px; font-weight: 200;" x="178.72333208719888" y="0" dx="0em" dy="0.95em" fill="rgb(33, 33, 33)" stroke="none" stroke-width="1px">70</text><text style="text-anchor: middle; visibility: inherit; font-family: Roboto, sans-serif; font-size: 12px; font-weight: 200;" x="201.06374859809875" y="0" dx="0em" dy="0.95em" fill="rgb(33, 33, 33)" stroke="none" stroke-width="1px">80</text><text style="text-anchor: middle; visibility: hidden; font-family: Roboto, sans-serif; font-size: 12px; font-weight: 200;" x="223.40416510899863" y="0" dx="0em" dy="0.95em" fill="rgb(33, 33, 33)" stroke="none" stroke-width="1px">90</text><text style="text-anchor: middle; visibility: inherit; font-family: Roboto, sans-serif; font-size: 12px; font-weight: 200;" x="245.74458161989847" y="0" dx="0em" dy="0.95em" fill="rgb(33, 33, 33)" stroke="none" stroke-width="1px">100</text><text style="text-anchor: middle; visibility: hidden; font-family: Roboto, sans-serif; font-size: 12px; font-weight: 200;" x="268.08499813079834" y="0" dx="0em" dy="0.95em" fill="rgb(33, 33, 33)" stroke="none" stroke-width="1px">110</text></g><line x1="0" y1="0" x2="268.08499813079834" y2="0" fill="rgb(0, 0, 0)" stroke="rgb(204, 204, 204)" stroke-width="1px"></line></g></g></g></g></svg>