<svg viewBox="0 0 330 200" xmlns="http://www.w3.org/2000/svg"><g><g><g><g><g><line x1="72.29800224304199" y1="176.5999994277954" x2="67.29800224304199" y2="176.5999994277954" style="visibility: inherit;" fill="rgb(0, 0, 0)" stroke="rgb(204, 204, 204)" stroke-width="1px"></line><line x1="72.29800224304199" y1="158.9399994850159" x2="67.29800224304199" y2="158.9399994850159" style="visibility: inherit;" fill="rgb(0, 0, 0)" stroke="rgb(204, 204, 204)" stroke-width="1px"></line><line x1="72.29800224304199" y1="141.27999954223634" x2="67.29800224304199" y2="141.27999954223634" style="visibility: inherit;" fill="rgb(0, 0, 0)" stroke="rgb(204, 204, 204)" stroke-width="1px"></line><line x1="72.29800224304199" y1="123.61999959945678" x2="67.29800224304199" y2="123.61999959945678" style="visibility: inherit;" fill="rgb(0, 0, 0)" stroke="rgb(204, 204, 204)" stroke-width="1px"></line><line x1="72.29800224304199" y1="105.95999965667727" x2="67.29800224304199" y2="105.95999965667727" style="visibility: inherit;" fill="rgb(0, 0, 0)" stroke="rgb(204, 204, 204)" stroke-width="1px"></line><line x1="72.29800224304199" y1="88.2999997138977" x2="67.29800224304199" y2="88.2999997138977" style="visibility: inherit;" fill="rgb(0, 0, 0)" stroke="rgb(204, 204, 204)" stroke-width="1px"></line><line x1="72.29800224304199" y1="70.63999977111817" x2="67.29800224304199" y2="70.63999977111817" style="visibility: inherit;" fill="rgb(0, 0, 0)" stroke="rgb(204, 204, 204)" stroke-width="1px"></line><line x1="72.29800224304199" y1="52.979999828338634" x2="67.29800224304199" y2="52.979999828338634" style="visibility: inherit;" fill="rgb(0, 0, 0)" stroke="rgb(204, 204, 204)" stroke-width="1px"></line><line x1="72.29800224304199" y1="35.31999988555909" x2="67.29800224304199" y2="35.31999988555909" style="visibility: inherit;" fill="rgb(0, 0, 0)" stroke="rgb(204, 204, 204)" stroke-width="1px"></line><line x1="72.29800224304199" y1="17.659999942779535" x2="67.29800224304199" y2="17.659999942779535" style="visibility: inherit;" fill="rgb(0, 0, 0)" stroke="rgb(204, 204, 204)" stroke-width="1px"></line><line x1="72.29800224304199" y1="0" x2="67.29800224304199" y2="0" style="visibility: inherit;" fill="rgb(0, 0, 0)" stroke="rgb(204, 204, 204)" stroke-width="1px"></line></g><g transform="translate(62.29800224304199, 0)"><text style="text-anchor: end; visibility: hidden; font-family: Roboto, sans-serif; font-size: 12px; font-weight: 200;" x="0" y="176.5999994277954" dx="0em" dy="0.3em" fill="rgb(33, 33, 33)" stroke="none" stroke-width="1px">-0.075</text><text style="text-anchor: end; visibility: inherit; font-family: Roboto, sans-serif; font-size: 12px; font-weight: 200;" x="0" y="158.9399994850159" dx="0em" dy="0.3em" fill="rgb(33, 33, 33)" stroke="none" stroke-width="1px">-0.07</text><text style="text-anchor: end; visibility: hidden; font-family: Roboto, sans-serif; font-size: 12px; font-weight: 200;" x="0" y="141.27999954223634" dx="0em" dy="0.3em" fill="rgb(33, 33, 33)" stroke="none" stroke-width="1px">-0.065</text><text style="text-anchor: end; visibility: inherit; font-family: Roboto, sans-serif; font-size: 12px; font-weight: 200;" x="0" y="123.61999959945678" dx="0em" dy="0.3em" fill="rgb(33, 33, 33)" stroke="none" stroke-width="1px">-0.06</text><text style="text-anchor: end; visibility: hidden; font-family: Roboto, sans-serif; font-size: 12px; font-weight: 200;" x="0" y="105.95999965667727" dx="0em" dy="0.3em" fill="rgb(33, 33, 33)" stroke="none" stroke-width="1px">-0.055</text><text style="text-anchor: end; visibility: inherit; font-family: Roboto, sans-serif; font-size: 12px; font-weight: 200;" x="0" y="88.2999997138977" dx="0em" dy="0.3em" fill="rgb(33, 33, 33)" stroke="none" stroke-width="1px">-0.05</text><text style="text-anchor: end; visibility: hidden; font-family: Roboto, sans-serif; font-size: 12px; font-weight: 200;" x="0" y="70.63999977111817" dx="0em" dy="0.3em" fill="rgb(33, 33, 33)" stroke="none" stroke-width="1px">-0.045</text><text style="text-anchor: end; visibility: inherit; font-family: Roboto, sans-serif; font-size: 12px; font-weight: 200;" x="0" y="52.979999828338634" dx="0em" dy="0.3em" fill="rgb(33, 33, 33)" stroke="none" stroke-width="1px">-0.04</text><text style="text-anchor: end; visibility: hidden; font-family: Roboto, sans-serif; font-size: 12px; font-weight: 200;" x="0" y="35.31999988555909" dx="0em" dy="0.3em" fill="rgb(33, 33, 33)" stroke="none" stroke-width="1px">-0.035</text><text style="text-anchor: end; visibility: inherit; font-family: Roboto, sans-serif; font-size: 12px; font-weight: 200;" x="0" y="17.659999942779535" dx="0em" dy="0.3em" fill="rgb(33, 33, 33)" stroke="none" stroke-width="1px">-0.03</text><text style="text-anchor: end; visibility: hidden; font-family: Roboto, sans-serif; font-size: 12px; font-weight: 200;" x="0" y="0" dx="0em" dy="0.3em" fill="rgb(33, 33, 33)" stroke="none" stroke-width="1px">-0.025</text></g><line x1="72.29800224304199" y1="0" x2="72.29800224304199" y2="176.5999994277954" fill="rgb(0, 0, 0)" stroke="rgb(204, 204, 204)" stroke-width="1px"></line></g></g><g transform="translate(72, 0)" clip-path="url(#clip_0)"><clipPath id="clip_0"><rect width="257" height="176"></rect></clipPath><g><g><g><line x1="0" y1="0" x2="0" y2="176.5999994277954" fill="rgb(0, 0, 0)" stroke="rgb(66, 66, 66)" stroke-width="1px" opacity="0.25"></line><line x1="21.4751664797465" y1="0" x2="21.4751664797465" y2="176.5999994277954" fill="rgb(0, 0, 0)" stroke="rgb(66, 66, 66)" stroke-width="1px" opacity="0.25"></line><line x1="42.950332959493" y1="0" x2="42.950332959493" y2="176.5999994277954" fill="rgb(0, 0, 0)" stroke="rgb(66, 66, 66)" stroke-width="1px" opacity="0.25"></line><line x1="64.4254994392395" y1="0" x2="64.4254994392395" y2="176.5999994277954" fill="rgb(0, 0, 0)" stroke="rgb(66, 66, 66)" stroke-width="1px" opacity="0.25"></line><line x1="85.900665918986" y1="0" x2="85.900665918986" y2="176.5999994277954" fill="rgb(0, 0, 0)" stroke="rgb(66, 66, 66)" stroke-width="1px" opacity="0.25"></line><line x1="107.37583239873251" y1="0" x2="107.37583239873251" y2="176.5999994277954" fill="rgb(0, 0, 0)" stroke="rgb(66, 66, 66)" stroke-width="1px" opacity="0.25"></line><line x1="128.850998878479" y1="0" x2="128.850998878479" y2="176.5999994277954" fill="rgb(0, 0, 0)" stroke="rgb(66, 66, 66)" stroke-width="1px" opacity="0.25"></line><line x1="150.32616535822552" y1="0" x2="150.32616535822552" y2="176.5999994277954" fill="rgb(0, 0, 0)" stroke="rgb(66, 66, 66)" stroke-width="1px" opacity="0.25"></line><line x1="171.801331837972" y1="0" x2="171.801331837972" y2="176.5999994277954" fill="rgb(0, 0, 0)" stroke="rgb(66, 66, 66)" stroke-width="1px" opacity="0.25"></line><line x1="193.2764983177185" y1="0" x2="193.2764983177185" y2="176.5999994277954" fill="rgb(0, 0, 0)" stroke="rgb(66, 66, 66)" stroke-width="1px" opacity="0.25"></line><line x1="214.75166479746503" y1="0" x2="214.75166479746503" y2="176.5999994277954" fill="rgb(0, 0, 0)" stroke="rgb(66, 66, 66)" stroke-width="1px" opacity="0.25"></line><line x1="236.2268312772115" y1="0" x2="236.2268312772115" y2="176.5999994277954" fill="rgb(0, 0, 0)" stroke="rgb(66, 66, 66)" stroke-width="1px" opacity="0.25"></line><line x1="257.701997756958" y1="0" x2="257.701997756958" y2="176.5999994277954" fill="rgb(0, 0, 0)" stroke="rgb(66, 66, 66)" stroke-width="1px" opacity="0.25"></line></g><g><line x1="0" y1="176.5999994277954" x2="257.701997756958" y2="176.5999994277954" fill="rgb(0, 0, 0)" stroke="rgb(66, 66, 66)" stroke-width="1px" opacity="0.25"></line><line x1="0" y1="158.9399994850159" x2="257.701997756958" y2="158.9399994850159" fill="rgb(0, 0, 0)" stroke="rgb(66, 66, 66)" stroke-width="1px" opacity="0.25"></line><line x1="0" y1="141.27999954223634" x2="257.701997756958" y2="141.27999954223634" fill="rgb(0, 0, 0)" stroke="rgb(66, 66, 66)" stroke-width="1px" opacity="0.25"></line><line x1="0" y1="123.61999959945678" x2="257.701997756958" y2="123.61999959945678" fill="rgb(0, 0, 0)" stroke="rgb(66, 66, 66)" stroke-width="1px" opacity="0.25"></line><line x1="0" y1="105.95999965667727" x2="257.701997756958" y2="105.95999965667727" fill="rgb(0, 0, 0)" stroke="rgb(66, 66, 66)" stroke-width="1px" opacity="0.25"></line><line x1="0" y1="88.2999997138977" x2="257.701997756958" y2="88.2999997138977" fill="rgb(0, 0, 0)" stroke="rgb(66, 66, 66)" stroke-width="1px" opacity="0.25"></line><line x1="0" y1="70.63999977111817" x2="257.701997756958" y2="70.63999977111817" fill="rgb(0, 0, 0)" stroke="rgb(66, 66, 66)" stroke-width="1px" opacity="0.25"></line><line x1="0" y1="52.979999828338634" x2="257.701997756958" y2="52.979999828338634" fill="rgb(0, 0, 0)" stroke="rgb(66, 66, 66)" stroke-width="1px" opacity="0.25"></line><line x1="0" y1="35.31999988555909" x2="257.701997756958" y2="35.31999988555909" fill="rgb(0, 0, 0)" stroke="rgb(66, 66, 66)" stroke-width="1px" opacity="0.25"></line><line x1="0" y1="17.659999942779535" x2="257.701997756958" y2="17.659999942779535" fill="rgb(0, 0, 0)" stroke="rgb(66, 66, 66)" stroke-width="1px" opacity="0.25"></line><line x1="0" y1="0" x2="257.701997756958" y2="0" fill="rgb(0, 0, 0)" stroke="rgb(66, 66, 66)" stroke-width="1px" opacity="0.25"></line></g></g></g><g><g><line x1="0" y1="-88.2999997138977" x2="257.701997756958" y2="-88.2999997138977" fill="rgb(0, 0, 0)" stroke="rgb(153, 153, 153)" stroke-width="1.5px"></line></g></g><g><g><line x1="21.4751664797465" y1="0" x2="21.4751664797465" y2="176.5999994277954" fill="rgb(0, 0, 0)" stroke="rgb(153, 153, 153)" stroke-width="1.5px"></line></g></g><g><g><g><g><g><path style="fill: none;" stroke="rgb(255, 112, 67)" stroke-width="2px" d="M25.7701997756958,187.9187508721143L27.917716423670452,175.1248258747844L30.0652330716451,162.8034483917725L32.21274971961975,151.19876365012368L34.3602663675944,140.46263179601706L36.50778301556905,130.66991313324584L38.6552996635437,121.83536391721955L40.80281631151835,113.93085215998374L42.950332959493,106.90037457513854L45.09784960746765,100.6723634003542L47.2453662554423,95.16902776067954L49.392882903416954,90.3120333039755L51.5403995513916,86.02641911001945L53.687916199366256,82.24276647068329L55.835432847340904,78.89815843051672L57.98294949531555,75.93638703092856L60.1304661432902,73.30775998939042L62.277982791264854,70.96862086488973L64.4254994392395,68.88074908324674L66.57301608721416,67.01098146796897L68.7205327351888,65.33033416947131L70.86804938316345,63.8135478967559L73.0155660311381,62.438985394075914L75.16308267911276,61.1875867392477L77.3105993270874,60.042764109343814L79.45811597506206,58.990244186368805L81.6056326230367,58.017557966818245L83.75314927101135,57.11396104080889L85.900665918986,56.269875282282L88.04818256696065,55.47704861660547L90.1956992149353,54.72810353186L92.34321586290996,54.01708197125719L94.4907325108846,53.33840386864521L96.63824915885925,52.687331731476206L98.78576580683391,52.05965992551402L100.93328245480855,51.45184403165123L103.0807991027832,50.860473204950374L105.22831575075786,50.28284831556866L107.37583239873251,49.71658147460987L109.52334904670715,49.15960311492786L111.67086569468181,48.6100662409265L113.81838234265645,48.06624687373641L115.9658989906311,47.52672642047601L118.11341563860574,46.99023794130792L120.2609322865804,46.45599495688549L122.40844893455505,45.92284664097944L124.55596558252971,45.39025512746779L126.70348223050435,44.8575450696408L128.850998878479,44.32402705260713L130.99851552645364,43.78928216434233L133.1460321744283,43.252922217288955L135.29354882240295,42.714556406209205L137.4410654703776,42.174087088303565L139.58858211835224,41.63106620922371L141.7360987663269,41.08566703593053L143.88361541430154,40.53743564104816L146.0311320622762,39.98631019175579L148.17864871025085,39.43237990252375L150.32616535822552,38.87546672606905L152.47368200620016,38.31546909711213L154.6211986541748,37.75279449150553L156.76871530214945,37.187297926092164L158.91623195012411,36.618929252608666L161.06374859809875,36.04793206278299L163.2112652460734,35.474357776029876L165.35878189404806,34.89815829764639L167.5062985420227,34.31943108497354L169.65381518999735,33.73829250640732L171.801331837972,33.15487554006656L173.94884848594666,32.56932312990412L176.0963651339213,31.981878934995123L178.24388178189596,31.392620730613114L180.3913984298706,30.801668865183952L182.53891507784527,30.208969233600232L184.68643172581992,29.6145841084197L186.83394837379456,29.019029794377584L188.9814650217692,28.422268710367312L191.12898166974387,27.824420411158087L193.2764983177185,27.22566715450389L195.42401496569315,26.625760404929196L197.57153161366782,26.025282610674907L199.71904826164246,25.424235876737825L201.8665649096171,24.82272146482828L204.01408155759174,24.220863289053852L206.1615982055664,23.61863043607673L208.30911485354105,23.01650961454552L210.45663150151572,22.414413907160867L212.60414814949036,21.812541160323775L214.75166479746503,21.21071798037337L216.89918144543967,20.609337693129106L219.0466980934143,20.008178405242546L221.19421474138895,19.407843813320934L223.34173138936362,18.80813561623121L225.48924803733826,18.208997990374968L227.6367646853129,17.610807962622175L229.78428133328757,17.013486489868125L231.9317979812622,16.417304563202038L234.07931462923685,15.822364251741051" fill="none"></path></g></g></g></g><g opacity="0.2"><g><g><g><path style="fill: none;" stroke="rgb(255, 112, 67)" stroke-width="2px" d="M23.62268312772115,193.4276353529243L25.7701997756958,175.5323921238205L27.917716423670452,160.0791700779244L30.0652330716451,146.71665794995204L32.21274971961975,135.14530696591632L34.3602663675944,125.10979146653501L36.50778301556905,116.39203531282622L38.6552996635437,108.80611984642056L40.80281631151835,102.19357342390677L42.950332959493,96.41842411212214L45.09784960746765,91.36423919996187L47.2453662554423,86.93199364688188L49.392882903416954,83.03605697668485L51.5403995513916,79.6030353976946L53.687916199366256,76.56995603666584L55.835432847340904,73.88266169629863L57.98294949531555,71.49448192498387L60.1304661432902,69.36521987195594L62.277982791264854,67.4601259847199L64.4254994392395,65.74905591463282L66.57301608721416,64.2063915705521L68.7205327351888,62.80939640317396L70.86804938316345,61.53838645546227L73.0155660311381,60.37715140985786L75.16308267911276,59.310494093649L77.3105993270874,58.32553309377528L79.45811597506206,57.41146591777235L81.6056326230367,56.55852953347389L83.75314927101135,55.75856615119915L85.900665918986,55.003746924399664L88.04818256696065,54.287808775836666L90.1956992149353,53.604685994150756L92.34321586290996,52.9505496812821L94.4907325108846,52.320386743894616L96.63824915885925,51.710723542511346L98.78576580683391,51.11815222628178L100.93328245480855,50.54012019649936L103.0807991027832,49.97341696819295L105.22831575075786,49.4164109834264L107.37583239873251,48.86718121430715L109.52334904670715,48.32413557607492L111.67086569468181,47.78576093032119L113.81838234265645,47.25051782318684L115.9658989906311,46.717445740725594L118.11341563860574,46.18550522263942L120.2609322865804,45.65463048030186L122.40844893455505,45.12312416715031L124.55596558252971,44.591367857218216L126.70348223050435,44.05847998291105L128.850998878479,43.52375002706307L130.99851552645364,42.98716483194899L133.1460321744283,42.448382296711216L135.29354882240295,41.90700768959101L137.4410654703776,41.363383111445955L139.58858211835224,40.81653489060447L141.7360987663269,40.26756827599105L143.88361541430154,39.71508854872479L146.0311320622762,39.159622017817355L148.17864871025085,38.601484468675736L150.32616535822552,38.04009696138711L152.47368200620016,37.47547265367676L154.6211986541748,36.90878258309564L156.76871530214945,36.33905307797218L158.91623195012411,35.766376242383416L161.06374859809875,35.191436278044506L163.2112652460734,34.613996345900205L165.35878189404806,34.03385908007114L167.5062985420227,33.451340265964305L169.65381518999735,32.86658463855791L171.801331837972,32.27975009055545L173.94884848594666,31.69099451466043L176.0963651339213,31.100712642631592L178.24388178189596,30.508733424040145L180.3913984298706,29.91524106704017L182.53891507784527,29.319919786224673L184.68643172581992,28.7230064206489L186.83394837379456,28.12569832331438L188.9814650217692,27.527127084351875L191.12898166974387,26.927647962344253L193.2764983177185,26.327537269522637L195.42401496569315,25.725900280567203L197.57153161366782,25.124565919293474L199.71904826164246,24.52266577583221L201.8665649096171,23.920449846963947L204.01408155759174,23.318076025392187L206.1615982055664,22.7152811566111L208.30911485354105,22.113328382248667L210.45663150151572,21.511270346083904L212.60414814949036,20.909732040068157L214.75166479746503,20.307983210447745L216.89918144543967,19.707267262262718L219.0466980934143,19.106439473412713L221.19421474138895,18.507341925438546L223.34173138936362,17.908573320596666L225.48924803733826,17.310291551590574L227.6367646853129,16.713522920993007L229.78428133328757,16.11750428073706L231.9317979812622,15.523031673202865L234.07931462923685,14.929953784549575" fill="none"></path></g></g></g></g></g></g><g transform="translate(72, 176)" clip-path="url(#clip_1)"><clipPath id="clip_1"><rect width="257" height="23"></rect></clipPath><g><g><line x1="0" y1="0" x2="0" y2="5" style="visibility: inherit;" fill="rgb(0, 0, 0)" stroke="rgb(204, 204, 204)" stroke-width="1px"></line><line x1="21.4751664797465" y1="0" x2="21.4751664797465" y2="5" style="visibility: inherit;" fill="rgb(0, 0, 0)" stroke="rgb(204, 204, 204)" stroke-width="1px"></line><line x1="42.950332959493" y1="0" x2="42.950332959493" y2="5" style="visibility: inherit;" fill="rgb(0, 0, 0)" stroke="rgb(204, 204, 204)" stroke-width="1px"></line><line x1="64.4254994392395" y1="0" x2="64.4254994392395" y2="5" style="visibility: inherit;" fill="rgb(0, 0, 0)" stroke="rgb(204, 204, 204)" stroke-width="1px"></line><line x1="85.900665918986" y1="0" x2="85.900665918986" y2="5" style="visibility: inherit;" fill="rgb(0, 0, 0)" stroke="rgb(204, 204, 204)" stroke-width="1px"></line><line x1="107.37583239873251" y1="0" x2="107.37583239873251" y2="5" style="visibility: inherit;" fill="rgb(0, 0, 0)" stroke="rgb(204, 204, 204)" stroke-width="1px"></line><line x1="128.850998878479" y1="0" x2="128.850998878479" y2="5" style="visibility: inherit;" fill="rgb(0, 0, 0)" stroke="rgb(204, 204, 204)" stroke-width="1px"></line><line x1="150.32616535822552" y1="0" x2="150.32616535822552" y2="5" style="visibility: inherit;" fill="rgb(0, 0, 0)" stroke="rgb(204, 204, 204)" stroke-width="1px"></line><line x1="171.801331837972" y1="0" x2="171.801331837972" y2="5" style="visibility: inherit;" fill="rgb(0, 0, 0)" stroke="rgb(204, 204, 204)" stroke-width="1px"></line><line x1="193.2764983177185" y1="0" x2="193.2764983177185" y2="5" style="visibility: inherit;" fill="rgb(0, 0, 0)" stroke="rgb(204, 204, 204)" stroke-width="1px"></line><line x1="214.75166479746503" y1="0" x2="214.75166479746503" y2="5" style="visibility: inherit;" fill="rgb(0, 0, 0)" stroke="rgb(204, 204, 204)" stroke-width="1px"></line><line x1="236.2268312772115" y1="0" x2="236.2268312772115" y2="5" style="visibility: inherit;" fill="rgb(0, 0, 0)" stroke="rgb(204, 204, 204)" stroke-width="1px"></line><line x1="257.701997756958" y1="0" x2="257.701997756958" y2="5" style="visibility: inherit;" fill="rgb(0, 0, 0)" stroke="rgb(204, 204, 204)" stroke-width="1px"></line></g><g transform="translate(0, 8)"><text style="text-anchor: middle; visibility: hidden; font-family: Roboto, sans-serif; font-size: 12px; font-weight: 200;" x="0" y="0" dx="0em" dy="0.95em" fill="rgb(33, 33, 33)" stroke="none" stroke-width="1px">-10</text><text style="text-anchor: middle; visibility: inherit; font-family: Roboto, sans-serif; font-size: 12px; font-weight: 200;" x="21.4751664797465" y="0" dx="0em" dy="0.95em" fill="rgb(33, 33, 33)" stroke="none" stroke-width="1px">0</text><text style="text-anchor: middle; visibility: hidden; font-family: Roboto, sans-serif; font-size: 12px; font-weight: 200;" x="42.950332959493" y="0" dx="0em" dy="0.95em" fill="rgb(33, 33, 33)" stroke="none" stroke-width="1px">10</text><text style="text-anchor: middle; visibility: inherit; font-family: Roboto, sans-serif; font-size: 12px; font-weight: 200;" x="64.4254994392395" y="0" dx="0em" dy="0.95em" fill="rgb(33, 33, 33)" stroke="none" stroke-width="1px">20</text><text style="text-anchor: middle; visibility: hidden; font-family: Roboto, sans-serif; font-size: 12px; font-weight: 200;" x="85.900665918986" y="0" dx="0em" dy="0.95em" fill="rgb(33, 33, 33)" stroke="none" stroke-width="1px">30</text><text style="text-anchor: middle; visibility: inherit; font-family: Roboto, sans-serif; font-size: 12px; font-weight: 200;" x="107.37583239873251" y="0" dx="0em" dy="0.95em" fill="rgb(33, 33, 33)" stroke="none" stroke-width="1px">40</text><text style="text-anchor: middle; visibility: hidden; font-family: Roboto, sans-serif; font-size: 12px; font-weight: 200;" x="128.850998878479" y="0" dx="0em" dy="0.95em" fill="rgb(33, 33, 33)" stroke="none" stroke-width="1px">50</text><text style="text-anchor: middle; visibility: inherit; font-family: Roboto, sans-serif; font-size: 12px; font-weight: 200;" x="150.32616535822552" y="0" dx="0em" dy="0.95em" fill="rgb(33, 33, 33)" stroke="none" stroke-width="1px">60</text><text style="text-anchor: middle; visibility: hidden; font-family: Roboto, sans-serif; font-size: 12px; font-weight: 200;" x="171.801331837972" y="0" dx="0em" dy="0.95em" fill="rgb(33, 33, 33)" stroke="none" stroke-width="1px">70</text><text style="text-anchor: middle; visibility: inherit; font-family: Roboto, sans-serif; font-size: 12px; font-weight: 200;" x="193.2764983177185" y="0" dx="0em" dy="0.95em" fill="rgb(33, 33, 33)" stroke="none" stroke-width="1px">80</text><text style="text-anchor: middle; visibility: hidden; font-family: Roboto, sans-serif; font-size: 12px; font-weight: 200;" x="214.75166479746503" y="0" dx="0em" dy="0.95em" fill="rgb(33, 33, 33)" stroke="none" stroke-width="1px">90</text><text style="text-anchor: middle; visibility: inherit; font-family: Roboto, sans-serif; font-size: 12px; font-weight: 200;" x="236.2268312772115" y="0" dx="0em" dy="0.95em" fill="rgb(33, 33, 33)" stroke="none" stroke-width="1px">100</text><text style="text-anchor: middle; visibility: hidden; font-family: Roboto, sans-serif; font-size: 12px; font-weight: 200;" x="257.701997756958" y="0" dx="0em" dy="0.95em" fill="rgb(33, 33, 33)" stroke="none" stroke-width="1px">110</text></g><line x1="0" y1="0" x2="257.701997756958" y2="0" fill="rgb(0, 0, 0)" stroke="rgb(204, 204, 204)" stroke-width="1px"></line></g></g></g></g></svg>